<svg class="animated" id="freepik_stories-houses" xmlns="http://www.w3.org/2000/svg" viewBox="0 0 500 500" version="1.1" xmlns:xlink="http://www.w3.org/1999/xlink" xmlns:svgjs="http://svgjs.com/svgjs"><style>svg#freepik_stories-houses:not(.animated) .animable {opacity: 0;}svg#freepik_stories-houses.animated #freepik--background-complete--inject-2 {animation: 3s Infinite  linear floating;animation-delay: 0s;}            @keyframes floating {                0% {                    opacity: 1;                    transform: translateY(0px);                }                50% {                    transform: translateY(-10px);                }                100% {                    opacity: 1;                    transform: translateY(0px);                }            }        </style><g id="freepik--background-complete--inject-2" class="animable animator-active" style="transform-origin: 246.94px 246.568px;"><path d="M436,251.87a26.53,26.53,0,0,1,20.66,21.57c.77,5.18,0,10.64,1.76,15.57,1.89,5.2,6.33,9,9.5,13.52a31.57,31.57,0,0,1,3.12,29.9c10.86,3.62,16.35,17.17,13.11,28.14s-13.45,18.91-24.5,21.89-22.82,1.64-33.93-1.08" style="fill: rgb(235, 235, 235); transform-origin: 455.397px 318.01px;" id="elf9p0xc6yflm" class="animable"></path><path d="M446.58,411.44c-.15,0-.26-17.35-.26-38.76s.11-38.76.26-38.76.26,17.35.26,38.76S446.72,411.44,446.58,411.44Z" style="fill: rgb(224, 224, 224); transform-origin: 446.58px 372.68px;" id="elarag8ri3iqt" class="animable"></path><path d="M458.12,340.46a66,66,0,0,1-5.35,6.45A68.55,68.55,0,0,1,447,353a65.28,65.28,0,0,1,5.36-6.45A67.68,67.68,0,0,1,458.12,340.46Z" style="fill: rgb(224, 224, 224); transform-origin: 452.56px 346.73px;" id="el9xf5byke3wj" class="animable"></path><path d="M281.5,141.12h69.24s-6.12-11.15-23.94-9.53c-17,1.55-17.89-5.48-26.55-6.34S284.38,131,281.5,141.12Z" style="fill: rgb(245, 245, 245); transform-origin: 316.12px 133.147px;" id="el43yj3e3e09x" class="animable"></path><path d="M401.49,133.14h69.25s-6.13-11.14-23.95-9.52c-17,1.55-17.89-5.48-26.55-6.35S404.37,123,401.49,133.14Z" style="fill: rgb(245, 245, 245); transform-origin: 436.115px 125.167px;" id="el77mmse12rmm" class="animable"></path><path d="M34,154.58H87.39s-4.72-8.59-18.46-7.34c-13.12,1.19-13.79-4.23-20.46-4.89S36.23,146.79,34,154.58Z" style="fill: rgb(235, 235, 235); transform-origin: 60.695px 148.436px;" id="el2yji6jf5tp" class="animable"></path><path d="M84.52,121.27h61.53s-5.44-9.91-21.28-8.46c-15.12,1.37-15.89-4.88-23.58-5.64S87.09,112.29,84.52,121.27Z" style="fill: rgb(245, 245, 245); transform-origin: 115.285px 114.187px;" id="el7pb2ret5evo" class="animable"></path><path d="M66.93,228.57c-12.41-1.49-25.16,7.82-27.52,20.09-1.41,7.32.38,15.44-3.26,22-2,3.63-5.49,6.2-8.35,9.21A35.78,35.78,0,0,0,20,315.25c-6,2-10.15,8-11,14.27s1.17,12.67,4.43,18.1a42.49,42.49,0,0,0,30.26,19.95,42.51,42.51,0,0,0,34.49-11.12" style="fill: rgb(224, 224, 224); transform-origin: 43.4928px 298.167px;" id="eljt4cix902og" class="animable"></path><path d="M46.89,411.63c-.14,0-.26-23.86-.26-53.29s.12-53.3.26-53.3.26,23.86.26,53.3S47,411.63,46.89,411.63Z" style="fill: rgb(235, 235, 235); transform-origin: 46.89px 358.335px;" id="eld2hdwcqjgg" class="animable"></path><path d="M46.85,344.15a83.73,83.73,0,0,1-5.44-7.66,83.83,83.83,0,0,1-5-7.95,83.73,83.73,0,0,1,5.44,7.66A83.83,83.83,0,0,1,46.85,344.15Z" style="fill: rgb(235, 235, 235); transform-origin: 41.63px 336.345px;" id="elr3iicl54nzf" class="animable"></path><path d="M227.79,101.6h87.36s-7.73-14.06-30.21-12c-21.48,2-22.57-6.92-33.49-8S231.43,88.86,227.79,101.6Z" style="fill: rgb(235, 235, 235); transform-origin: 271.47px 91.5531px;" id="elrqvh5hqkyj" class="animable"></path></g><g id="freepik--Floor--inject-2" class="animable" style="transform-origin: 243.95px 411.44px;"><path d="M472.63,411.44c0,.15-102.39.26-228.67.26s-228.69-.11-228.69-.26,102.37-.26,228.69-.26S472.63,411.3,472.63,411.44Z" style="fill: rgb(38, 50, 56); transform-origin: 243.95px 411.44px;" id="elron4kkjcnk" class="animable"></path></g><g id="freepik--house-5--inject-2" class="animable" style="transform-origin: 178.695px 262.945px;"><rect x="139.59" y="114.18" width="55.06" height="22.23" style="fill: rgb(39, 180, 132); transform-origin: 167.12px 125.295px;" id="elc8a3u7jbh6t" class="animable"></rect><g id="elos1o5mfiey"><g style="opacity: 0.7; transform-origin: 167.12px 125.295px;" class="animable"><rect x="139.59" y="114.18" width="55.06" height="22.23" id="el08nkmqu3fa3e" class="animable" style="transform-origin: 167.12px 125.295px;"></rect></g></g><rect x="159.32" y="114.18" width="55.06" height="22.23" style="fill: rgb(39, 180, 132); transform-origin: 186.85px 125.295px;" id="el6iq10xxqbv5" class="animable"></rect><g id="el95uh165pxuh"><g style="opacity: 0.4; transform-origin: 186.85px 125.295px;" class="animable"><rect x="159.32" y="114.18" width="55.06" height="22.23" id="el7iue66p6e94" class="animable" style="transform-origin: 186.85px 125.295px;"></rect></g></g><rect x="96.32" y="135.37" width="100.2" height="276.26" style="fill: rgb(39, 180, 132); transform-origin: 146.42px 273.5px;" id="ela7l45pqbjwi" class="animable"></rect><g id="elhq7ahbkaylf"><g style="opacity: 0.7; transform-origin: 115.285px 273.5px;" class="animable"><rect x="96.32" y="135.37" width="37.93" height="276.26" id="eld2z9q827hl" class="animable" style="transform-origin: 115.285px 273.5px;"></rect></g></g><rect x="160.87" y="135.37" width="100.2" height="276.26" style="fill: rgb(39, 180, 132); transform-origin: 210.97px 273.5px;" id="eld7u2n30aqv9" class="animable"></rect><g id="el000wfqs6i3m3pf"><g style="opacity: 0.4; transform-origin: 197.66px 273.5px;" class="animable"><rect x="134.25" y="135.37" width="126.82" height="276.26" id="elnt8kfukk2j" class="animable" style="transform-origin: 197.66px 273.5px;"></rect></g></g><path d="M219,135.43c0,.15-17.84.26-39.83.26s-39.83-.11-39.83-.26,17.83-.26,39.83-.26S219,135.29,219,135.43Z" style="fill: rgb(38, 50, 56); transform-origin: 179.17px 135.43px;" id="elbj76wlq8wkl" class="animable"></path><rect x="152.43" y="154.62" width="33.74" height="78.47" style="fill: rgb(250, 250, 250); transform-origin: 169.3px 193.855px;" id="elxwpyrrdhbyb" class="animable"></rect><path d="M186.17,233.09s0-.13,0-.39,0-.65,0-1.14c0-1,0-2.48,0-4.37,0-3.82,0-9.36-.07-16.32,0-13.92-.07-33.5-.12-56.25l.25.25H152.43l.26-.26c0,30.58-.06,58.29-.08,78.47l-.18-.18,24.63.1,6.74,0,1.76,0,.61,0s-.19,0-.57,0l-1.73,0-6.69.05-24.75.1h-.19v-.19c0-20.18,0-47.89-.07-78.47v-.26h34.25v.25c0,22.82-.09,42.46-.12,56.42,0,6.93-.05,12.45-.07,16.26,0,1.87,0,3.32,0,4.32,0,.48,0,.84,0,1.11S186.17,233.09,186.17,233.09Z" style="fill: rgb(38, 50, 56); transform-origin: 169.295px 193.69px;" id="elzprewp0tx2n" class="animable"></path><path d="M186.71,170.67c0,.15-7.78.26-17.37.26s-17.38-.11-17.38-.26,7.78-.26,17.38-.26S186.71,170.53,186.71,170.67Z" style="fill: rgb(38, 50, 56); transform-origin: 169.335px 170.67px;" id="eljrs8xp5acre" class="animable"></path><path d="M169.66,232.5c-.14,0-.26-13.79-.26-30.8s.12-30.8.26-30.8.26,13.79.26,30.8S169.8,232.5,169.66,232.5Z" style="fill: rgb(38, 50, 56); transform-origin: 169.66px 201.7px;" id="elr4blgfr5me9" class="animable"></path><rect x="213.3" y="154.62" width="33.74" height="78.47" style="fill: rgb(250, 250, 250); transform-origin: 230.17px 193.855px;" id="el44yzf3xe79s" class="animable"></rect><path d="M247,233.09s0-.13,0-.39,0-.65,0-1.14c0-1,0-2.48,0-4.37,0-3.82,0-9.36-.07-16.32,0-13.92-.07-33.5-.12-56.25l.25.25H213.3l.26-.26c0,30.58-.06,58.29-.08,78.47l-.18-.18,24.63.1,6.73,0,1.77,0,.61,0s-.19,0-.58,0l-1.73,0-6.69.05-24.74.1h-.19v-.19c0-20.18-.05-47.89-.08-78.47v-.26h34.26v.25c0,22.82-.09,42.46-.12,56.42,0,6.93,0,12.45-.07,16.26,0,1.87,0,3.32,0,4.32,0,.48,0,.84,0,1.11S247,233.09,247,233.09Z" style="fill: rgb(38, 50, 56); transform-origin: 230.16px 193.69px;" id="eln5txq9vdzcs" class="animable"></path><path d="M247.58,170.67c0,.15-7.78.26-17.38.26s-17.37-.11-17.37-.26,7.78-.26,17.37-.26S247.58,170.53,247.58,170.67Z" style="fill: rgb(38, 50, 56); transform-origin: 230.205px 170.67px;" id="el1eo60am6c5n" class="animable"></path><path d="M230.53,232.5c-.15,0-.26-13.79-.26-30.8s.11-30.8.26-30.8.26,13.79.26,30.8S230.67,232.5,230.53,232.5Z" style="fill: rgb(38, 50, 56); transform-origin: 230.53px 201.7px;" id="el5ldzvshyobv" class="animable"></path><rect x="152.43" y="250.16" width="33.74" height="78.47" style="fill: rgb(250, 250, 250); transform-origin: 169.3px 289.395px;" id="elae24unc895g" class="animable"></rect><path d="M186.17,328.64s0-.14,0-.4,0-.65,0-1.14c0-1,0-2.48,0-4.37,0-3.82,0-9.36-.07-16.32,0-13.91-.07-33.5-.12-56.25l.25.25H152.43l.26-.26c0,30.58-.06,58.29-.08,78.48l-.18-.19,24.63.1,6.74.05,1.76,0c.4,0,.61,0,.61,0h-.57l-1.73,0-6.69.05-24.75.1h-.19v-.18c0-20.19,0-47.9-.07-78.48v-.26h.26l33.74,0h.25v.24c0,22.82-.09,42.46-.12,56.42,0,6.93-.05,12.45-.07,16.26,0,1.87,0,3.32,0,4.32,0,.48,0,.84,0,1.11S186.17,328.64,186.17,328.64Z" style="fill: rgb(38, 50, 56); transform-origin: 169.295px 289.28px;" id="elugb38wjasfp" class="animable"></path><path d="M186.71,266.21c0,.15-7.78.26-17.37.26s-17.38-.11-17.38-.26,7.78-.26,17.38-.26S186.71,266.07,186.71,266.21Z" style="fill: rgb(38, 50, 56); transform-origin: 169.335px 266.21px;" id="elk8bk8caw7y" class="animable"></path><path d="M169.66,328c-.14,0-.26-13.79-.26-30.8s.12-30.8.26-30.8.26,13.79.26,30.8S169.8,328,169.66,328Z" style="fill: rgb(38, 50, 56); transform-origin: 169.66px 297.2px;" id="eltikhw5duhvj" class="animable"></path><rect x="213.3" y="250.16" width="33.74" height="78.47" style="fill: rgb(250, 250, 250); transform-origin: 230.17px 289.395px;" id="el6gulur0fa98" class="animable"></rect><path d="M247,328.64s0-.14,0-.4,0-.65,0-1.14c0-1,0-2.48,0-4.37,0-3.82,0-9.36-.07-16.32,0-13.91-.07-33.5-.12-56.25l.25.25H213.3l.26-.26c0,30.58-.06,58.29-.08,78.48l-.18-.19,24.63.1,6.73.05,1.77,0c.39,0,.61,0,.61,0h-.58l-1.73,0-6.69.05-24.74.1h-.19v-.18c0-20.19-.05-47.9-.08-78.48v-.26h.27l33.74,0h.25v.24c0,22.82-.09,42.46-.12,56.42,0,6.93,0,12.45-.07,16.26,0,1.87,0,3.32,0,4.32,0,.48,0,.84,0,1.11S247,328.64,247,328.64Z" style="fill: rgb(38, 50, 56); transform-origin: 230.16px 289.28px;" id="elkgz4cdgawc" class="animable"></path><path d="M247.58,266.21c0,.15-7.78.26-17.38.26s-17.37-.11-17.37-.26,7.78-.26,17.37-.26S247.58,266.07,247.58,266.21Z" style="fill: rgb(38, 50, 56); transform-origin: 230.205px 266.21px;" id="elejodg0fpmpa" class="animable"></path><path d="M230.53,328c-.15,0-.26-13.79-.26-30.8s.11-30.8.26-30.8.26,13.79.26,30.8S230.67,328,230.53,328Z" style="fill: rgb(38, 50, 56); transform-origin: 230.53px 297.2px;" id="elwgz2qh7uyx" class="animable"></path><path d="M200.65,411.63s0-.11,0-.32,0-.52,0-.9q0-1.23,0-3.48c0-3.05,0-7.46-.07-13,0-11.08-.07-26.7-.11-44.89l.24.24-30,0c-.06.05.49-.49.26-.25v9c0,2.95,0,5.87,0,8.73,0,5.73,0,11.27,0,16.56,0,10.58,0,20.17,0,28.33l-.19-.19,21.87.1,6,0,1.57,0,.55,0-.51,0-1.53,0-6,.05-22,.1h-.19v-.19c0-8.16,0-17.75-.05-28.33,0-5.29,0-10.83,0-16.56V349.05l.26-.27H200.9V349c-.05,18.26-.09,33.93-.12,45.06,0,5.51-.05,9.9-.07,12.94,0,1.48,0,2.62,0,3.43,0,.37,0,.66,0,.87A1.38,1.38,0,0,1,200.65,411.63Z" style="fill: rgb(38, 50, 56); transform-origin: 185.695px 380.245px;" id="elr3b0olwk41" class="animable"></path><path d="M230.63,411.63a2,2,0,0,1,0-.32c0-.22,0-.52,0-.9q0-1.23,0-3.48c0-3.05,0-7.46-.07-13,0-11.08-.07-26.7-.12-44.89l.25.24-30,0c-.07.05.49-.49.25-.25v17.69c0,5.73,0,11.27,0,16.56,0,10.58,0,20.17,0,28.33l-.19-.19,21.87.1,6,0,1.57,0,.55,0-.51,0-1.54,0-5.94.05-22,.1h-.19v-.19c0-8.16,0-17.75-.05-28.33,0-5.29,0-10.83,0-16.56,0-2.86,0-5.78,0-8.73v-9c-.23.23.31-.33.27-.27h30.21V349c-.05,18.26-.09,33.93-.12,45.06,0,5.51-.05,9.9-.06,12.94,0,1.48,0,2.62,0,3.43l0,.87A2.74,2.74,0,0,1,230.63,411.63Z" style="fill: rgb(38, 50, 56); transform-origin: 215.721px 380.128px;" id="el9mf48y3pw5q" class="animable"></path><path d="M204.59,379.29c-.06,0,.39-.4,1.11-.1a1.23,1.23,0,0,1,.75,1.08,1.37,1.37,0,0,1-.88,1.37,1.34,1.34,0,0,1-1.52-.57,1.1,1.1,0,0,1,.09-1.32,1.06,1.06,0,0,1,.77-.41c.21,0,.31.06.3.09s-.45,0-.77.54a.72.72,0,0,0,0,.84.88.88,0,0,0,1,.34.93.93,0,0,0,.57-.86.87.87,0,0,0-.44-.77C205,379.21,204.6,379.36,204.59,379.29Z" style="fill: rgb(38, 50, 56); transform-origin: 205.162px 380.388px;" id="el6vvtvonizan" class="animable"></path><path d="M194,379.29c-.05,0,.39-.4,1.12-.1a1.25,1.25,0,0,1,.75,1.08,1.39,1.39,0,0,1-.88,1.37,1.34,1.34,0,0,1-1.53-.57,1.12,1.12,0,0,1,.1-1.32,1.06,1.06,0,0,1,.77-.41c.21,0,.31.06.3.09s-.46,0-.77.54a.74.74,0,0,0,0,.84.91.91,0,0,0,1,.34,1,1,0,0,0,.57-.86.89.89,0,0,0-.44-.77C194.45,379.21,194,379.36,194,379.29Z" style="fill: rgb(38, 50, 56); transform-origin: 194.581px 380.389px;" id="ell6xwzo6252b" class="animable"></path></g><g id="freepik--house-4--inject-2" class="animable" style="transform-origin: 387.9px 257.195px;"><rect x="335.86" y="102.78" width="73.03" height="308.83" style="fill: rgb(39, 180, 132); transform-origin: 372.375px 257.195px;" id="elsgscg15h2a8" class="animable"></rect><rect x="349.47" y="124.42" width="22.2" height="42.77" style="fill: rgb(224, 224, 224); transform-origin: 360.57px 145.805px;" id="elmbp6qpxkk6a" class="animable"></rect><path d="M361.19,167.2c-.14,0-.26-9.58-.26-21.39s.12-21.39.26-21.39.26,9.58.26,21.39S361.33,167.2,361.19,167.2Z" style="fill: rgb(39, 180, 132); transform-origin: 361.19px 145.81px;" id="eluxdck2os6xk" class="animable"></path><path d="M371.66,139.28c0,.15-5,.26-11.09.26s-11.1-.11-11.1-.26,5-.26,11.1-.26S371.66,139.14,371.66,139.28Z" style="fill: rgb(39, 180, 132); transform-origin: 360.565px 139.28px;" id="el9fng2zbsphq" class="animable"></path><path d="M371.78,154.58c0,.14-5,.26-11.19.26s-11.19-.12-11.19-.26,5-.26,11.19-.26S371.78,154.44,371.78,154.58Z" style="fill: rgb(39, 180, 132); transform-origin: 360.59px 154.58px;" id="elm5kwumrp2dp" class="animable"></path><rect x="386.73" y="102.78" width="53.21" height="308.83" style="fill: rgb(39, 180, 132); transform-origin: 413.335px 257.195px;" id="elugwyeauuaco" class="animable"></rect><g id="el41vhhz5t7iy"><polygon points="439.94 411.6 386.54 411.44 386.54 103.59 439.75 103.59 439.94 411.6" style="opacity: 0.1; transform-origin: 413.24px 257.595px;" class="animable"></polygon></g><rect x="401.92" y="124.42" width="22.2" height="42.77" style="fill: rgb(224, 224, 224); transform-origin: 413.02px 145.805px;" id="elrwyhkt2z8lk" class="animable"></rect><path d="M413.65,167.2c-.15,0-.26-9.58-.26-21.39s.11-21.39.26-21.39.26,9.58.26,21.39S413.79,167.2,413.65,167.2Z" style="fill: rgb(39, 180, 132); transform-origin: 413.65px 145.81px;" id="elgf2dpq1nurb" class="animable"></path><path d="M424.12,139.28c0,.15-5,.26-11.1.26s-11.1-.11-11.1-.26,5-.26,11.1-.26S424.12,139.14,424.12,139.28Z" style="fill: rgb(39, 180, 132); transform-origin: 413.02px 139.28px;" id="elp8mndbhl26g" class="animable"></path><path d="M424.24,154.58c0,.14-5,.26-11.19.26s-11.19-.12-11.19-.26,5-.26,11.19-.26S424.24,154.44,424.24,154.58Z" style="fill: rgb(39, 180, 132); transform-origin: 413.05px 154.58px;" id="elkzeqo1o8vfd" class="animable"></path><rect x="401.92" y="177.05" width="22.2" height="42.77" style="fill: rgb(224, 224, 224); transform-origin: 413.02px 198.435px;" id="elsu3s0em31b" class="animable"></rect><path d="M413.65,219.82c-.15,0-.26-9.57-.26-21.38s.11-21.39.26-21.39.26,9.57.26,21.39S413.79,219.82,413.65,219.82Z" style="fill: rgb(39, 180, 132); transform-origin: 413.65px 198.435px;" id="elu153uh0nhe" class="animable"></path><path d="M424.12,191.91c0,.14-5,.26-11.1.26s-11.1-.12-11.1-.26,5-.26,11.1-.26S424.12,191.76,424.12,191.91Z" style="fill: rgb(39, 180, 132); transform-origin: 413.02px 191.91px;" id="ele1tk2hxys3m" class="animable"></path><path d="M424.24,207.21c0,.14-5,.26-11.19.26s-11.19-.12-11.19-.26,5-.26,11.19-.26S424.24,207.06,424.24,207.21Z" style="fill: rgb(39, 180, 132); transform-origin: 413.05px 207.21px;" id="el8sxqwm7unut" class="animable"></path><g id="elqlf4hen5p7"><rect x="335.86" y="102.78" width="50.47" height="308.83" style="opacity: 0.3; transform-origin: 361.095px 257.195px;" class="animable"></rect></g></g><g id="freepik--house-3--inject-2" class="animable" style="transform-origin: 345.705px 288.38px;"><path d="M307.65,185.4a2.94,2.94,0,0,1,.09,2.24,4.33,4.33,0,0,0-.22,2.27c.13.48.45.89.58,1.37a2,2,0,0,1-1.12,2.37l-4-1.81a15.46,15.46,0,0,0,1.92-5.8" style="fill: rgb(39, 180, 132); transform-origin: 305.577px 189.525px;" id="elkzsu6z1vz8n" class="animable"></path><g id="ellatbmglr5op"><g style="opacity: 0.5; transform-origin: 305.577px 189.525px;" class="animable"><path d="M307.65,185.4a2.94,2.94,0,0,1,.09,2.24,4.33,4.33,0,0,0-.22,2.27c.13.48.45.89.58,1.37a2,2,0,0,1-1.12,2.37l-4-1.81a15.46,15.46,0,0,0,1.92-5.8" id="elm5vh0073am" class="animable" style="transform-origin: 305.577px 189.525px;"></path></g></g><path d="M297.18,184.47c1.19.28-.79,2.28-.7,3.5a7.48,7.48,0,0,1-.22,3.62,15.15,15.15,0,0,1-6.94-1.58c.56-2.37,1.11-4.75,1.67-7.13C291,182.88,296.12,184.22,297.18,184.47Z" style="fill: rgb(39, 180, 132); transform-origin: 293.441px 187.236px;" id="elodcyzrl5y5m" class="animable"></path><rect x="324.56" y="164.69" width="36.63" height="52.94" style="fill: rgb(38, 50, 56); transform-origin: 342.875px 191.16px;" id="elutfb29744h" class="animable"></rect><rect x="357.51" y="164.69" width="36.63" height="52.94" style="fill: rgb(69, 90, 100); transform-origin: 375.825px 191.16px;" id="elrp53w1n2wwa" class="animable"></rect><path d="M385.39,206.94a4.92,4.92,0,0,1,0-.6q0-.63,0-1.68c0-1.5,0-3.62-.07-6.26,0-5.36-.07-12.86-.12-21.63l.25.25-16.62,0c-.07.05.49-.49.25-.26h0v8.44c0,2.75,0,5.4,0,8,0,5.09,0,9.74-.05,13.76l-.2-.2,12.09.11,3.34.05.88,0,.32,0-.28,0-.84,0L381,207l-12.21.11h-.19v-.2c0-4,0-8.67,0-13.76,0-2.55,0-5.2,0-8,0-1.37,0-2.76,0-4.17v-4.27h0l.27-.27,16.62,0h.24v.24c-.05,8.84-.09,16.39-.12,21.79,0,2.62-.05,4.72-.06,6.2,0,.69,0,1.23,0,1.64A3.35,3.35,0,0,1,385.39,206.94Z" style="fill: rgb(38, 50, 56); transform-origin: 377.165px 191.775px;" id="eljyctk0bch2" class="animable"></path><path d="M382.06,193.48c0,.07-.2.2-.25.53a.48.48,0,0,0,.64.58.47.47,0,0,0,.13-.85c-.24-.23-.5-.18-.52-.26s.26-.29.73,0a1,1,0,0,1,.49.74,1,1,0,0,1-.66.91.89.89,0,0,1-1.16-1.18C381.67,193.42,382.07,193.41,382.06,193.48Z" style="fill: rgb(38, 50, 56); transform-origin: 382.332px 194.266px;" id="el7y9ij23r6ou" class="animable"></path><path d="M431.85,208.28s0-.24,0-.69,0-1.16,0-2.05c0-1.83,0-4.49-.06-8l.12.12c-15.53.08-48,.14-85.56.14-38.57,0-71.84-.06-87-.15l.11-.11c0,3,0,5.33-.05,6.93,0,.77,0,1.36,0,1.78s0,.6,0,.6,0-.2,0-.6,0-1,0-1.78c0-1.6,0-3.92,0-6.93v-.11h.11c15.12-.09,48.39-.15,87-.15,37.52,0,70,.06,85.56.14H432v.12c0,3.47-.05,6.13-.06,8,0,.89,0,1.56,0,2.05S431.85,208.28,431.85,208.28Z" style="fill: rgb(38, 50, 56); transform-origin: 345.715px 202.78px;" id="elfgpcbho1w2e" class="animable"></path><path d="M264.86,208a25.46,25.46,0,0,1-.26-5.09,25.46,25.46,0,0,1,.26-5.09,24.6,24.6,0,0,1,.26,5.09A24.6,24.6,0,0,1,264.86,208Z" style="fill: rgb(38, 50, 56); transform-origin: 264.862px 202.91px;" id="elp3gx7i0wab" class="animable"></path><path d="M271.47,208a25.46,25.46,0,0,1-.26-5.09,25.46,25.46,0,0,1,.26-5.09,25.46,25.46,0,0,1,.26,5.09A25.46,25.46,0,0,1,271.47,208Z" style="fill: rgb(38, 50, 56); transform-origin: 271.47px 202.91px;" id="eld1eugew29ct" class="animable"></path><path d="M284.68,208a3.39,3.39,0,0,1-.05-.65c0-.47,0-1.09,0-1.85,0-1.67,0-4-.08-6.86,0-5.86-.06-13.91-.09-23l.26.25-3.28,0-3.32,0,.25-.26c0,9-.06,17.08-.08,22.93,0,2.86-.06,5.18-.08,6.84,0,.77,0,1.38-.05,1.85a4.21,4.21,0,0,1,0,.65,2.59,2.59,0,0,1-.05-.65c0-.47,0-1.08,0-1.85,0-1.66-.05-4-.08-6.84,0-5.85,0-13.9-.08-22.93v-.26h.26l3.33,0,3.28,0h.26v.27c0,9-.06,17.09-.08,23,0,2.87-.06,5.19-.08,6.86,0,.76,0,1.38,0,1.85A3.39,3.39,0,0,1,284.68,208Z" style="fill: rgb(38, 50, 56); transform-origin: 281.515px 191.685px;" id="el92wxsp1za2" class="animable"></path><path d="M291.29,208a24.6,24.6,0,0,1-.26-5.09,24.6,24.6,0,0,1,.26-5.09,25.46,25.46,0,0,1,.26,5.09A25.46,25.46,0,0,1,291.29,208Z" style="fill: rgb(38, 50, 56); transform-origin: 291.288px 202.91px;" id="elixzfzw3typ" class="animable"></path><path d="M297.89,208a25.46,25.46,0,0,1-.26-5.09,25.46,25.46,0,0,1,.26-5.09,24.6,24.6,0,0,1,.26,5.09A24.6,24.6,0,0,1,297.89,208Z" style="fill: rgb(38, 50, 56); transform-origin: 297.892px 202.91px;" id="eliere8ah1a9c" class="animable"></path><path d="M304.5,208a25.46,25.46,0,0,1-.26-5.09,25.46,25.46,0,0,1,.26-5.09,25.46,25.46,0,0,1,.26,5.09A25.46,25.46,0,0,1,304.5,208Z" style="fill: rgb(38, 50, 56); transform-origin: 304.5px 202.91px;" id="el52kqausjpq6" class="animable"></path><path d="M311.11,208a24.6,24.6,0,0,1-.26-5.09,24.6,24.6,0,0,1,.26-5.09,25.46,25.46,0,0,1,.26,5.09A25.46,25.46,0,0,1,311.11,208Z" style="fill: rgb(38, 50, 56); transform-origin: 311.108px 202.91px;" id="elep5ampbvm4l" class="animable"></path><path d="M317.71,208a25.46,25.46,0,0,1-.26-5.09,25.46,25.46,0,0,1,.26-5.09,24.6,24.6,0,0,1,.26,5.09A24.6,24.6,0,0,1,317.71,208Z" style="fill: rgb(38, 50, 56); transform-origin: 317.712px 202.91px;" id="elaf58kdh505n" class="animable"></path><path d="M324.32,208a25.46,25.46,0,0,1-.26-5.09,25.46,25.46,0,0,1,.26-5.09,25.46,25.46,0,0,1,.26,5.09A25.46,25.46,0,0,1,324.32,208Z" style="fill: rgb(38, 50, 56); transform-origin: 324.32px 202.91px;" id="el4pe6t7fjzyw" class="animable"></path><path d="M330.93,208a24.16,24.16,0,0,1-.27-5.09,24.16,24.16,0,0,1,.27-5.09,25.46,25.46,0,0,1,.26,5.09A25.46,25.46,0,0,1,330.93,208Z" style="fill: rgb(38, 50, 56); transform-origin: 330.924px 202.91px;" id="el8uqfrpwght" class="animable"></path><path d="M337.53,208a25.46,25.46,0,0,1-.26-5.09,25.46,25.46,0,0,1,.26-5.09,24.6,24.6,0,0,1,.26,5.09A24.6,24.6,0,0,1,337.53,208Z" style="fill: rgb(38, 50, 56); transform-origin: 337.532px 202.91px;" id="eli263w9r9h5" class="animable"></path><path d="M344.14,208a24.6,24.6,0,0,1-.26-5.09,24.6,24.6,0,0,1,.26-5.09,25.46,25.46,0,0,1,.26,5.09A25.46,25.46,0,0,1,344.14,208Z" style="fill: rgb(38, 50, 56); transform-origin: 344.138px 202.91px;" id="el1nypsjz2jgx" class="animable"></path><path d="M350.74,208a25.46,25.46,0,0,1-.26-5.09,25.46,25.46,0,0,1,.26-5.09,24.6,24.6,0,0,1,.26,5.09A24.6,24.6,0,0,1,350.74,208Z" style="fill: rgb(38, 50, 56); transform-origin: 350.742px 202.91px;" id="elbjmqwsm9mfd" class="animable"></path><path d="M357.35,208a25.46,25.46,0,0,1-.26-5.09,25.46,25.46,0,0,1,.26-5.09,25.46,25.46,0,0,1,.26,5.09A25.46,25.46,0,0,1,357.35,208Z" style="fill: rgb(38, 50, 56); transform-origin: 357.35px 202.91px;" id="el7i718jcc89k" class="animable"></path><path d="M364,208a24.6,24.6,0,0,1-.26-5.09,24.6,24.6,0,0,1,.26-5.09,25.46,25.46,0,0,1,.26,5.09A25.46,25.46,0,0,1,364,208Z" style="fill: rgb(38, 50, 56); transform-origin: 363.998px 202.91px;" id="eli8trol63dkr" class="animable"></path><path d="M370.56,208a25.46,25.46,0,0,1-.26-5.09,25.46,25.46,0,0,1,.26-5.09,24.6,24.6,0,0,1,.26,5.09A24.6,24.6,0,0,1,370.56,208Z" style="fill: rgb(38, 50, 56); transform-origin: 370.562px 202.91px;" id="eltrnzrksgsoq" class="animable"></path><path d="M377.17,208a24.6,24.6,0,0,1-.26-5.09,24.6,24.6,0,0,1,.26-5.09,25.46,25.46,0,0,1,.26,5.09A25.46,25.46,0,0,1,377.17,208Z" style="fill: rgb(38, 50, 56); transform-origin: 377.168px 202.91px;" id="el5vquet4wcvs" class="animable"></path><path d="M383.78,208a24.16,24.16,0,0,1-.27-5.09,24.16,24.16,0,0,1,.27-5.09,25.46,25.46,0,0,1,.26,5.09A25.46,25.46,0,0,1,383.78,208Z" style="fill: rgb(38, 50, 56); transform-origin: 383.774px 202.91px;" id="elzto45ffbw5" class="animable"></path><path d="M390.38,208a25.46,25.46,0,0,1-.26-5.09,25.46,25.46,0,0,1,.26-5.09,24.6,24.6,0,0,1,.26,5.09A24.6,24.6,0,0,1,390.38,208Z" style="fill: rgb(38, 50, 56); transform-origin: 390.382px 202.91px;" id="el4hga5m8mzgx" class="animable"></path><path d="M397,208a24.6,24.6,0,0,1-.26-5.09,24.6,24.6,0,0,1,.26-5.09,25.46,25.46,0,0,1,.26,5.09A25.46,25.46,0,0,1,397,208Z" style="fill: rgb(38, 50, 56); transform-origin: 396.998px 202.91px;" id="el01t98456c3pt" class="animable"></path><path d="M403.59,208a25.46,25.46,0,0,1-.26-5.09,25.46,25.46,0,0,1,.26-5.09,24.6,24.6,0,0,1,.26,5.09A24.6,24.6,0,0,1,403.59,208Z" style="fill: rgb(38, 50, 56); transform-origin: 403.592px 202.91px;" id="eltbx7flym1ur" class="animable"></path><path d="M410.2,208a25.46,25.46,0,0,1-.26-5.09,25.46,25.46,0,0,1,.26-5.09,25.46,25.46,0,0,1,.26,5.09A25.46,25.46,0,0,1,410.2,208Z" style="fill: rgb(38, 50, 56); transform-origin: 410.2px 202.91px;" id="elbiso7xzsz38" class="animable"></path><path d="M416.81,208a24.6,24.6,0,0,1-.26-5.09,24.6,24.6,0,0,1,.26-5.09,25.46,25.46,0,0,1,.26,5.09A25.46,25.46,0,0,1,416.81,208Z" style="fill: rgb(38, 50, 56); transform-origin: 416.808px 202.91px;" id="elwm76fv76kgi" class="animable"></path><path d="M423.41,208a25.46,25.46,0,0,1-.26-5.09,25.46,25.46,0,0,1,.26-5.09,24.6,24.6,0,0,1,.26,5.09A24.6,24.6,0,0,1,423.41,208Z" style="fill: rgb(38, 50, 56); transform-origin: 423.412px 202.91px;" id="elu7ykktf0a7" class="animable"></path><path d="M430,208a24.6,24.6,0,0,1-.26-5.09,24.6,24.6,0,0,1,.26-5.09,25.46,25.46,0,0,1,.26,5.09A25.46,25.46,0,0,1,430,208Z" style="fill: rgb(38, 50, 56); transform-origin: 429.998px 202.91px;" id="elqvnzz62v5nr" class="animable"></path><path d="M431.85,206.94c0,.14-20.39.26-45.53.26s-45.53-.12-45.53-.26,20.38-.26,45.53-.26S431.85,206.8,431.85,206.94Z" style="fill: rgb(38, 50, 56); transform-origin: 386.32px 206.94px;" id="elmu5j4h9avt" class="animable"></path><rect x="279.97" y="206.94" width="151.88" height="204.71" style="fill: rgb(69, 90, 100); transform-origin: 355.91px 309.295px;" id="elicv74rhvgtj" class="animable"></rect><rect x="259.33" y="206.94" width="81.46" height="204.71" style="fill: rgb(38, 50, 56); transform-origin: 300.06px 309.295px;" id="elhnn9extudo" class="animable"></rect><rect x="392.93" y="318.01" width="27.78" height="27.78" style="fill: rgb(235, 235, 235); transform-origin: 406.82px 331.9px;" id="elzfn81tjd70i" class="animable"></rect><path d="M407.88,348.58c-.14,0-.26-7.18-.26-16s.12-16,.26-16,.26,7.18.26,16S408,348.58,407.88,348.58Z" style="fill: rgb(69, 90, 100); transform-origin: 407.88px 332.58px;" id="elpfb568yogl" class="animable"></path><path d="M425.92,327.32c0,.15-8.07.26-18,.26s-18-.11-18-.26,8.07-.26,18-.26S425.92,327.18,425.92,327.32Z" style="fill: rgb(69, 90, 100); transform-origin: 407.92px 327.32px;" id="elk7p2n7yt" class="animable"></path><rect x="353.31" y="318.01" width="27.78" height="27.78" style="fill: rgb(235, 235, 235); transform-origin: 367.2px 331.9px;" id="eld4kjg6pzxe8" class="animable"></rect><path d="M368.26,348.58c-.14,0-.26-7.18-.26-16s.12-16,.26-16,.26,7.18.26,16S368.41,348.58,368.26,348.58Z" style="fill: rgb(69, 90, 100); transform-origin: 368.26px 332.58px;" id="elyl1uk2ev16" class="animable"></path><path d="M386.31,327.32c0,.15-8.08.26-18.05.26s-18-.11-18-.26,8.08-.26,18-.26S386.31,327.18,386.31,327.32Z" style="fill: rgb(69, 90, 100); transform-origin: 368.285px 327.32px;" id="el0bfhuawo0r5u" class="animable"></path><rect x="392.93" y="274.12" width="27.78" height="27.78" style="fill: rgb(235, 235, 235); transform-origin: 406.82px 288.01px;" id="elzxrk51ods4" class="animable"></rect><path d="M407.88,304.69c-.14,0-.26-7.18-.26-16s.12-16,.26-16,.26,7.17.26,16S408,304.69,407.88,304.69Z" style="fill: rgb(69, 90, 100); transform-origin: 407.88px 288.69px;" id="el88fdngmrcx" class="animable"></path><path d="M425.92,283.44c0,.14-8.07.26-18,.26s-18-.12-18-.26,8.07-.26,18-.26S425.92,283.29,425.92,283.44Z" style="fill: rgb(69, 90, 100); transform-origin: 407.92px 283.44px;" id="el78chy6f64m5" class="animable"></path><rect x="353.31" y="274.12" width="27.78" height="27.78" style="fill: rgb(235, 235, 235); transform-origin: 367.2px 288.01px;" id="elpqu3qcnx7zk" class="animable"></rect><path d="M368.26,304.69c-.14,0-.26-7.18-.26-16s.12-16,.26-16,.26,7.17.26,16S368.41,304.69,368.26,304.69Z" style="fill: rgb(69, 90, 100); transform-origin: 368.26px 288.69px;" id="elualuu3v02o" class="animable"></path><path d="M386.31,283.44c0,.14-8.08.26-18.05.26s-18-.12-18-.26,8.08-.26,18-.26S386.31,283.29,386.31,283.44Z" style="fill: rgb(69, 90, 100); transform-origin: 368.285px 283.44px;" id="elcf3yzx328wh" class="animable"></path><rect x="392.93" y="230.13" width="27.78" height="27.78" style="fill: rgb(235, 235, 235); transform-origin: 406.82px 244.02px;" id="elr5van1wb9zi" class="animable"></rect><path d="M407.88,260.7c-.14,0-.26-7.18-.26-16s.12-16,.26-16,.26,7.18.26,16S408,260.7,407.88,260.7Z" style="fill: rgb(69, 90, 100); transform-origin: 407.88px 244.7px;" id="ela4yd87qrgc" class="animable"></path><path d="M425.92,239.45c0,.14-8.07.26-18,.26s-18-.12-18-.26,8.07-.26,18-.26S425.92,239.31,425.92,239.45Z" style="fill: rgb(69, 90, 100); transform-origin: 407.92px 239.45px;" id="elya1lc0c0a8p" class="animable"></path><rect x="353.31" y="230.13" width="27.78" height="27.78" style="fill: rgb(235, 235, 235); transform-origin: 367.2px 244.02px;" id="elyq7xqqyxfj" class="animable"></rect><path d="M368.26,260.7c-.14,0-.26-7.18-.26-16s.12-16,.26-16,.26,7.18.26,16S368.41,260.7,368.26,260.7Z" style="fill: rgb(69, 90, 100); transform-origin: 368.26px 244.7px;" id="eliw6aj7ed6lo" class="animable"></path><path d="M386.31,239.45c0,.14-8.08.26-18.05.26s-18-.12-18-.26,8.08-.26,18-.26S386.31,239.31,386.31,239.45Z" style="fill: rgb(69, 90, 100); transform-origin: 368.285px 239.45px;" id="el47f57yt5cq1" class="animable"></path><g id="elsehqvd6f4a"><g style="opacity: 0.7; transform-origin: 299px 244.02px;" class="animable"><rect x="285.11" y="230.13" width="27.78" height="27.78" style="fill: rgb(255, 255, 255); transform-origin: 299px 244.02px;" id="elleuc0spz06" class="animable"></rect></g></g><path d="M299,260.7c-.15,0-.26-7.18-.26-16s.11-16,.26-16,.26,7.18.26,16S299.14,260.7,299,260.7Z" style="fill: rgb(38, 50, 56); transform-origin: 299px 244.7px;" id="elo3p8qmc6mih" class="animable"></path><path d="M318.11,239.45c0,.14-8.08.26-18.05.26s-18-.12-18-.26,8.08-.26,18-.26S318.11,239.31,318.11,239.45Z" style="fill: rgb(38, 50, 56); transform-origin: 300.085px 239.45px;" id="el1okx743jeq" class="animable"></path><g id="el3id4gdb34z6"><g style="opacity: 0.7; transform-origin: 299px 288.45px;" class="animable"><rect x="285.11" y="274.56" width="27.78" height="27.78" style="fill: rgb(255, 255, 255); transform-origin: 299px 288.45px;" id="ela4m4mzu3bf4" class="animable"></rect></g></g><path d="M299,305.12c-.15,0-.26-7.18-.26-16s.11-16,.26-16,.26,7.18.26,16S299.14,305.12,299,305.12Z" style="fill: rgb(38, 50, 56); transform-origin: 299px 289.12px;" id="elkt2gabbcrj" class="animable"></path><path d="M318.11,283.87c0,.14-8.08.26-18.05.26s-18-.12-18-.26,8.08-.26,18-.26S318.11,283.73,318.11,283.87Z" style="fill: rgb(38, 50, 56); transform-origin: 300.085px 283.87px;" id="elqhybyrdnxc9" class="animable"></path><g id="el2pl1wfd0fc8"><g style="opacity: 0.7; transform-origin: 299px 332.87px;" class="animable"><rect x="285.11" y="318.98" width="27.78" height="27.78" style="fill: rgb(255, 255, 255); transform-origin: 299px 332.87px;" id="el4trhi78l5tl" class="animable"></rect></g></g><path d="M299,349.54c-.15,0-.26-7.17-.26-16s.11-16,.26-16,.26,7.18.26,16S299.14,349.54,299,349.54Z" style="fill: rgb(38, 50, 56); transform-origin: 299px 333.54px;" id="elyluen3yzjrl" class="animable"></path><path d="M318.11,328.29c0,.14-8.08.26-18.05.26s-18-.12-18-.26,8.08-.26,18-.26S318.11,328.15,318.11,328.29Z" style="fill: rgb(38, 50, 56); transform-origin: 300.085px 328.29px;" id="elvqahd0kn5m" class="animable"></path><path d="M400,411.6a.67.67,0,0,1,0-.25l0-.73c0-.68,0-1.63,0-2.84,0-2.5,0-6.09-.07-10.57,0-9-.06-21.65-.09-36.09l.25.25H371.53l.25-.25c0,14.56-.06,27.29-.09,36.41,0,4.52-.05,8.15-.07,10.68,0,1.23,0,2.18,0,2.87,0,.3,0,.55,0,.74a.67.67,0,0,1,0,.25.67.67,0,0,1,0-.25c0-.19,0-.44,0-.74,0-.69,0-1.64,0-2.87,0-2.53,0-6.16-.07-10.68,0-9.12-.06-21.85-.09-36.41v-.26h29v.26c0,14.44-.06,27.05-.09,36.09,0,4.48-.05,8.07-.07,10.57,0,1.21,0,2.16,0,2.84l0,.73A.67.67,0,0,1,400,411.6Z" style="fill: rgb(38, 50, 56); transform-origin: 385.96px 386.465px;" id="ellenb6tmbmza" class="animable"></path><rect x="375.11" y="364.11" width="9.7" height="23.23" style="fill: rgb(224, 224, 224); transform-origin: 379.96px 375.725px;" id="elyr4ewv7ef6" class="animable"></rect><path d="M384.84,387.37h-9.75V364.09h9.75Zm-9.7-.06h9.65V364.14h-9.65Z" style="fill: rgb(38, 50, 56); transform-origin: 379.965px 375.73px;" id="elccoa1cq1t7o" class="animable"></path><rect x="386.71" y="364.11" width="9.7" height="23.23" style="fill: rgb(224, 224, 224); transform-origin: 391.56px 375.725px;" id="elxir9t9zx2y" class="animable"></rect><path d="M396.44,387.37h-9.75V364.09h9.75Zm-9.7-.06h9.65V364.14h-9.65Z" style="fill: rgb(38, 50, 56); transform-origin: 391.565px 375.73px;" id="elt2swfn8h6e" class="animable"></path><path d="M396.62,389.74s.1-.08.31-.06a1,1,0,0,1,.72.52,1.45,1.45,0,0,1,.09,1.32,1.37,1.37,0,0,1-1.46.76A1.42,1.42,0,0,1,395.2,391a1.26,1.26,0,0,1,.59-1.19c.68-.42,1.18-.12,1.13-.08s-.46,0-.91.37a.92.92,0,0,0-.33.84,1,1,0,0,0,.7.79.93.93,0,0,0,.93-.47,1.12,1.12,0,0,0,0-.93C397.09,389.82,396.6,389.82,396.62,389.74Z" style="fill: rgb(38, 50, 56); transform-origin: 396.526px 390.944px;" id="elxe802zy6n39" class="animable"></path><path d="M426.48,361.11s0-.12,0-.35,0-.6,0-1c0-.94,0-2.16,0-3.66l.07.07-16.21,0c.05-.05-.11.1.1-.11h0v5l-.1-.1,11.56.05,3.4,0h1.25l-.3,0h-.9l-3.38,0-11.63,0h-.1v-5.08h0c.21-.21.06-.06.11-.1l16.21,0h.07v.06c0,1.51,0,2.75,0,3.7,0,.37,0,.69,0,1S426.48,361.11,426.48,361.11Z" style="fill: rgb(38, 50, 56); transform-origin: 418.435px 358.463px;" id="elbmvhkhskx38" class="animable"></path><path d="M363.42,350.78s0-.12,0-.35,0-.6,0-1c0-.93,0-2.15,0-3.65l.06.07-16.21,0c.05,0-.1.11.11-.1h0v2.53c0,.83,0,1.65,0,2.44l-.1-.1,11.57.05,3.4,0h1.24a1.29,1.29,0,0,1-.3,0l-.9,0-3.37,0-11.64,0h-.1v-5.07h0l.1-.1,16.21,0h.07v.07c0,1.51,0,2.75,0,3.69,0,.38,0,.7,0,1S363.42,350.78,363.42,350.78Z" style="fill: rgb(38, 50, 56); transform-origin: 355.37px 348.14px;" id="el5rhiene682c" class="animable"></path><path d="M353.31,310.16s0-.13,0-.35,0-.61,0-1c0-.93,0-2.16,0-3.65l.07.06-16.21,0,.1-.1h0v5l-.1-.1,11.56,0,3.4,0,.92,0h0l-.89,0-3.38,0-11.63.05H337v-.1c0-.79,0-1.61,0-2.44v-2.53h0l.11-.11,16.21,0h.06v.07c0,1.51,0,2.75,0,3.69,0,.38,0,.7,0,1S353.31,310.16,353.31,310.16Z" style="fill: rgb(38, 50, 56); transform-origin: 345.19px 307.525px;" id="el9hyzijld49g" class="animable"></path><path d="M411.58,266.44s0-.13,0-.35,0-.61,0-1c0-.93,0-2.16,0-3.65l.07.06-16.21,0,.11-.1h0v1.26c0,.43,0,.85,0,1.27v2.44l-.1-.1,11.56,0,3.4,0,.92,0h-.87l-3.38,0-11.63.05h-.1v-5.07h0c.21-.21.06-.06.1-.11l16.21,0h.07v.07c0,1.51,0,2.75,0,3.69,0,.38,0,.7,0,1S411.58,266.44,411.58,266.44Z" style="fill: rgb(38, 50, 56); transform-origin: 403.54px 263.787px;" id="elvivwejr8ipg" class="animable"></path><path d="M365.45,219.78s0-.13,0-.36l0-1c0-.94,0-2.16,0-3.66l.06.07-16.2,0s-.11.1.1-.11h0v5l-.1-.11,11.56.05,3.4,0h.92l.32,0h-1.19l-3.38,0-11.63,0h-.11V214.8h0l.11-.1,16.2,0h.07v.06c0,1.52,0,2.75,0,3.7,0,.37,0,.69,0,1S365.45,219.78,365.45,219.78Z" style="fill: rgb(38, 50, 56); transform-origin: 357.39px 217.24px;" id="el24zmh0kfi9c" class="animable"></path><path d="M421.4,271.27s0-.12,0-.35,0-.6,0-1q0-1.41,0-3.66l.06.07-16.21,0c.05,0-.1.11.11-.1h0v2.53c0,.83,0,1.65,0,2.44l-.1-.1,11.57.05,3.4,0h1.24a1.57,1.57,0,0,1-.3,0h-.9l-3.37,0-11.64,0h-.1V266.3h0l.1-.1,16.21,0h.07v.07c0,1.51,0,2.75,0,3.7,0,.37,0,.69,0,1S421.4,271.27,421.4,271.27Z" style="fill: rgb(38, 50, 56); transform-origin: 413.35px 268.735px;" id="el73ggdqw4u1q" class="animable"></path><path d="M346.35,315.05s0-.12,0-.35,0-.6,0-1c0-.93,0-2.16,0-3.65l.06.06-16.21,0c.05,0-.1.11.11-.1h0v2.53c0,.83,0,1.65,0,2.44l-.1-.1,11.57,0,3.4,0,.92,0h0l-.9,0-3.37,0-11.64,0H330v-5.07h0c.21-.21.06-.06.1-.11l16.21,0h.07v.07c0,1.51,0,2.75,0,3.69,0,.38,0,.7,0,1S346.35,315.05,346.35,315.05Z" style="fill: rgb(38, 50, 56); transform-origin: 338.205px 312.372px;" id="elyu0jl64fjmm" class="animable"></path><path d="M353.31,224.77s0-.13,0-.35,0-.61,0-1c0-.94,0-2.16,0-3.65l.07.06-16.21,0s-.11.1.1-.1h0v5l-.1-.1,11.56,0,3.4,0H353l.33,0h-1.2l-3.38,0-11.63.05H337v-.1c0-.8,0-1.61,0-2.45v-2.53h0l.11-.11,16.21,0h.06v.07q0,2.26,0,3.69c0,.38,0,.7,0,1S353.31,224.77,353.31,224.77Z" style="fill: rgb(38, 50, 56); transform-origin: 345.19px 222.13px;" id="elpw61vhxay78" class="animable"></path><path d="M431.74,366.11s0-.12,0-.35,0-.6,0-1c0-.93,0-2.15,0-3.65l.07.07-16.21,0,.1-.1h0v5l-.1-.1,11.56.05,3.4,0,.92,0h0l-.89,0-3.38,0-11.63,0h-.1v-.1c0-.79,0-1.61,0-2.44v-2.53h0c.21-.21.06-.06.11-.1l16.21,0h.06v.07c0,1.51,0,2.75,0,3.69,0,.38,0,.7,0,1S431.74,366.11,431.74,366.11Z" style="fill: rgb(38, 50, 56); transform-origin: 423.67px 363.477px;" id="el7ykll0jdnwn" class="animable"></path><path d="M337.29,177a2.8,2.8,0,0,1-.51.39c-.35.24-.85.61-1.53,1a48.42,48.42,0,0,1-6,3.16,51.31,51.31,0,0,1-43.25-.64,47.71,47.71,0,0,1-5.87-3.33c-.67-.43-1.15-.81-1.49-1.06a2.68,2.68,0,0,1-.5-.4,3.73,3.73,0,0,1,.55.32c.36.21.87.57,1.55,1a55.2,55.2,0,0,0,5.92,3.17,52.46,52.46,0,0,0,42.94.63,55.8,55.8,0,0,0,6-3c.7-.38,1.21-.72,1.58-.92A3.1,3.1,0,0,1,337.29,177Z" style="fill: rgb(38, 50, 56); transform-origin: 307.715px 181.068px;" id="elwvugcd9a0wn" class="animable"></path><path d="M335.21,175.41a2.32,2.32,0,0,1-.44.31l-1.34.81-1,.57c-.36.2-.77.39-1.2.61-.87.41-1.83.94-3,1.36l-1.77.71c-.62.24-1.29.42-2,.65a45,45,0,0,1-4.4,1.19,50,50,0,0,1-20.76.14c-1.57-.36-3.06-.67-4.42-1.13-.68-.21-1.35-.39-2-.62l-1.78-.69a31.4,31.4,0,0,1-3-1.32c-.44-.21-.85-.39-1.21-.58l-1-.57-1.35-.79a1.76,1.76,0,0,1-.45-.31,2.4,2.4,0,0,1,.51.22l1.38.7,1,.52c.37.18.78.35,1.22.55.88.37,1.86.86,3,1.24l1.78.65c.62.22,1.29.38,2,.59,1.35.44,2.84.73,4.39,1.07a56.76,56.76,0,0,0,10.3,1,56,56,0,0,0,10.27-1.11c1.55-.37,3-.68,4.38-1.13.67-.22,1.33-.39,1.95-.62l1.77-.67c1.14-.4,2.11-.9,3-1.29.43-.2.84-.37,1.21-.56l1-.53,1.37-.72A1.91,1.91,0,0,1,335.21,175.41Z" style="fill: rgb(38, 50, 56); transform-origin: 309.65px 179.095px;" id="elq06x536j0s" class="animable"></path><path d="M307.73,185.5a4.91,4.91,0,0,0-1.93,3.93,7,7,0,0,1-.43,2.79,3,3,0,0,1-2.54,1.33,8.71,8.71,0,0,1-2.92-.61,9.16,9.16,0,0,0,2.13-4.25,11.81,11.81,0,0,1,.43-2,2.22,2.22,0,0,1,1.32-1.42Z" style="fill: rgb(39, 180, 132); transform-origin: 303.82px 189.41px;" id="elqnwjwjtr7yc" class="animable"></path><path d="M314.87,184.91A2.75,2.75,0,0,0,313.3,187a11.66,11.66,0,0,0,0,2.77,4.94,4.94,0,0,1-.47,2.69,8.85,8.85,0,0,0,6.17-1.24,9.45,9.45,0,0,1,.57-7s.06-.14-.24-.16S314.87,184.91,314.87,184.91Z" style="fill: rgb(39, 180, 132); transform-origin: 316.202px 188.32px;" id="eliukxsyzed3" class="animable"></path></g><g id="freepik--house-2--inject-2" class="animable" style="transform-origin: 235.815px 339.815px;"><rect x="161.18" y="314.11" width="42.51" height="97.54" style="fill: rgb(39, 180, 132); transform-origin: 182.435px 362.88px;" id="elswv822l91e" class="animable"></rect><g id="elb642l0x60w"><g style="opacity: 0.3; transform-origin: 182.435px 362.88px;" class="animable"><rect x="161.18" y="314.11" width="42.51" height="97.54" id="elvmxlacizeza" class="animable" style="transform-origin: 182.435px 362.88px;"></rect></g></g><polygon points="151.24 313.71 256.11 313.71 275.71 285.89 296.25 314.5 320.39 314.11 294.37 279.07 183.47 279.53 151.24 313.71" style="fill: rgb(39, 180, 132); transform-origin: 235.815px 296.785px;" id="el46lv33oxdwx" class="animable"></polygon><g id="elnyci6olvllo"><g style="opacity: 0.3; transform-origin: 235.815px 296.785px;" class="animable"><polygon points="151.24 313.71 256.11 313.71 275.71 285.89 296.25 314.5 320.39 314.11 294.37 279.07 183.47 279.53 151.24 313.71" id="elcnbyyi7xox9" class="animable" style="transform-origin: 235.815px 296.785px;"></polygon></g></g><polygon points="203.68 314.11 203.68 411.65 308.41 411.65 308.41 314.11 296.41 314.11 275.71 285.89 256.05 313.68 203.68 314.11" style="fill: rgb(39, 180, 132); transform-origin: 256.045px 348.77px;" id="el68ryjc8c6yf" class="animable"></polygon><path d="M243,411.65a.58.58,0,0,1,0-.21c0-.16,0-.37,0-.61,0-.58,0-1.37,0-2.38,0-2.11,0-5.11-.08-8.85,0-7.58-.05-18.14-.09-30.24l.26.25h-24.5l.25-.25c0,12.1-.06,22.66-.09,30.24,0,3.74,0,6.74-.07,8.85,0,1,0,1.8,0,2.38,0,.24,0,.45,0,.61s0,.21,0,.21a.85.85,0,0,1,0-.21l0-.61c0-.58,0-1.37-.05-2.38,0-2.11,0-5.11-.07-8.85,0-7.58-.06-18.14-.09-30.24v-.25h25v.25c0,12.1-.07,22.66-.09,30.24,0,3.74-.06,6.74-.08,8.85,0,1,0,1.8,0,2.38l0,.61C243,411.58,243,411.65,243,411.65Z" style="fill: rgb(38, 50, 56); transform-origin: 230.97px 390.38px;" id="elm6ycmvlou58" class="animable"></path><rect x="257.66" y="320.33" width="38.59" height="23.9" style="fill: rgb(255, 255, 255); transform-origin: 276.955px 332.28px;" id="el9g70nu2s74i" class="animable"></rect><rect x="216.08" y="320.54" width="24.34" height="23.04" style="fill: rgb(255, 255, 255); transform-origin: 228.25px 332.06px;" id="elzqm3i775oxf" class="animable"></rect><path d="M268.8,344.45c-.14,0-.26-5.4-.26-12.06s.12-12.06.26-12.06.26,5.4.26,12.06S269,344.45,268.8,344.45Z" style="fill: rgb(39, 180, 132); transform-origin: 268.8px 332.39px;" id="elv9qge9h39j" class="animable"></path><path d="M284.85,344.45c-.14,0-.26-5.4-.26-12.06s.12-12.06.26-12.06.26,5.4.26,12.06S285,344.45,284.85,344.45Z" style="fill: rgb(39, 180, 132); transform-origin: 284.85px 332.39px;" id="elfh0sockzvw" class="animable"></path><path d="M284.85,333.12a62.85,62.85,0,0,1-8,.26,63,63,0,0,1-8-.26,60.81,60.81,0,0,1,8-.26A60.72,60.72,0,0,1,284.85,333.12Z" style="fill: rgb(39, 180, 132); transform-origin: 276.85px 333.118px;" id="elrk7nu3hv5kd" class="animable"></path><path d="M228.25,343.59c-.14,0-.26-5.16-.26-11.53s.12-11.52.26-11.52.26,5.16.26,11.52S228.4,343.59,228.25,343.59Z" style="fill: rgb(39, 180, 132); transform-origin: 228.25px 332.065px;" id="elomu7x53z6" class="animable"></path><path d="M240.42,332.63c0,.14-5.45.26-12.17.26s-12.17-.12-12.17-.26,5.45-.26,12.17-.26S240.42,332.49,240.42,332.63Z" style="fill: rgb(39, 180, 132); transform-origin: 228.25px 332.63px;" id="elzqbar7z1b1e" class="animable"></path><path d="M280.81,304.51a5.16,5.16,0,1,1-5.16-5.17A5.16,5.16,0,0,1,280.81,304.51Z" style="fill: rgb(255, 255, 255); transform-origin: 275.65px 304.5px;" id="elc0jcgedir4" class="animable"></path><polygon points="238.84 298.18 245.35 290.14 245.35 270.82 231.72 270.82 231.72 298.33 238.84 298.18" style="fill: rgb(39, 180, 132); transform-origin: 238.535px 284.575px;" id="eloqya4tflglc" class="animable"></polygon><g id="el7ionmoupn8"><g style="opacity: 0.3; transform-origin: 242.095px 284.5px;" class="animable"><polygon points="238.84 298.18 238.84 270.82 245.35 270.82 245.35 290.14 238.84 298.18" id="eleawo95sz1c" class="animable" style="transform-origin: 242.095px 284.5px;"></polygon></g></g><rect x="230.2" y="267.98" width="16.08" height="2.84" style="fill: rgb(39, 180, 132); transform-origin: 238.24px 269.4px;" id="el7termjbai4s" class="animable"></rect><polygon points="151.24 313.71 151.24 316.54 256.05 316.54 256.05 313.68 151.24 313.71" style="fill: rgb(39, 180, 132); transform-origin: 203.645px 315.11px;" id="el202z1c4oxwm" class="animable"></polygon><polygon points="256.05 316.54 275.65 289.02 275.71 285.89 256.11 313.71 256.05 316.54" style="fill: rgb(39, 180, 132); transform-origin: 265.88px 301.215px;" id="elbybe39gvzl" class="animable"></polygon><rect x="296.41" y="314.11" width="23.48" height="1.82" style="fill: rgb(39, 180, 132); transform-origin: 308.15px 315.02px;" id="elmmlcb61htvn" class="animable"></rect><rect x="225.96" y="362.88" width="8.66" height="3.29" style="fill: rgb(38, 50, 56); transform-origin: 230.29px 364.525px;" id="elm8yp9xq1ep9" class="animable"></rect><path d="M241,390.7c-.08,0-.06-.55-.64-1a1.21,1.21,0,0,0-1.12-.12,1.16,1.16,0,0,0,0,2.16,1.21,1.21,0,0,0,1.12-.13c.58-.41.56-1,.64-.95s.25.6-.43,1.23a1.54,1.54,0,0,1-1.49.27,1.59,1.59,0,0,1,0-3,1.54,1.54,0,0,1,1.49.27C241.25,390.09,241.05,390.74,241,390.7Z" style="fill: rgb(38, 50, 56); transform-origin: 239.548px 390.66px;" id="ellw46c9o7ki" class="animable"></path><path d="M221.36,353.3a2,2,0,0,1,0-.3c0-.25,0-.53,0-.85l0-3.15.07.07-14,0c.05-.05-.1.1.1-.11h0v4.28l-.1-.1,9.94,0,2.93,0,.79,0h-.74l-2.91,0-10,0h-.1V349h0l.1-.1,14,0h.06V349c0,1.29,0,2.35,0,3.19,0,.31,0,.59,0,.83S221.36,353.3,221.36,353.3Z" style="fill: rgb(38, 50, 56); transform-origin: 214.42px 351.1px;" id="elluc5qi80cco" class="animable"></path><path d="M175.12,339.91s0-.11,0-.3,0-.53,0-.85c0-.83,0-1.88,0-3.15l.06.07-13.94,0c0-.05-.11.1.1-.11h0v4.28l-.1-.1,9.94,0,2.93,0,.79,0a1.23,1.23,0,0,1,.28,0h-1l-2.91,0-10,.05h-.1v-.1c0-.68,0-1.39,0-2.1v-2.18h0l.11-.1,13.94,0h.07v.06c0,1.29,0,2.35,0,3.19,0,.31,0,.59,0,.83A1.45,1.45,0,0,1,175.12,339.91Z" style="fill: rgb(38, 50, 56); transform-origin: 168.23px 337.615px;" id="el9udkghvga89" class="animable"></path><path d="M183.47,335.6a1.71,1.71,0,0,1,0-.3c0-.25,0-.53,0-.85,0-.82,0-1.87,0-3.14l.07.07-13.95,0s-.1.11.11-.1h0v2.16c0,.72,0,1.42,0,2.1l-.1-.1,9.95.05,2.92,0h1.08l-.26,0h-.77l-2.91,0-10,0h-.1v-4.37h0c.21-.21.06-.06.1-.11l13.95,0h.07v.07c0,1.29,0,2.35,0,3.18,0,.32,0,.59,0,.84A2.5,2.5,0,0,1,183.47,335.6Z" style="fill: rgb(38, 50, 56); transform-origin: 176.57px 333.302px;" id="elnmsd41tkulj" class="animable"></path><path d="M225.88,357.6s0-.11,0-.31,0-.52,0-.84c0-.83,0-1.88,0-3.15l.07.07-13.95,0,.11-.11h0v2.18c0,.71,0,1.42,0,2.1l-.1-.1,9.95,0,2.92,0,.8,0a1.23,1.23,0,0,1,.28,0h-1l-2.9,0-10,.05h-.1v-4.38h0l.1-.1,13.95,0H226v.06c0,1.29,0,2.35,0,3.19,0,.31,0,.59,0,.83S225.88,357.6,225.88,357.6Z" style="fill: rgb(38, 50, 56); transform-origin: 218.985px 355.305px;" id="el9k8q4hokqel" class="animable"></path><path d="M308.41,365.11s0-.11,0-.3,0-.53,0-.85c0-.83,0-1.87,0-3.14l.06.06-13.94,0,.1-.1h0v4.28l-.1-.1,9.94.05,2.93,0h1.07a1.1,1.1,0,0,1-.26,0h-.77l-2.9,0-10,0h-.11v-4.38h0l.11-.11,13.94,0h.07v.07l0,3.18c0,.32,0,.59,0,.83A1.32,1.32,0,0,1,308.41,365.11Z" style="fill: rgb(38, 50, 56); transform-origin: 301.49px 362.815px;" id="else13yhp55w" class="animable"></path><path d="M308.43,369.36a2.33,2.33,0,0,1,0-.32l0-.87c0-.89-.05-1.91-.07-3.06l.09.09-5.19,0,.11-.11h0v1.12c0,.37,0,.73,0,1.09,0,.7,0,1.38,0,2l-.09-.09,3.72,0,1.06,0,.4,0a2.29,2.29,0,0,1-.36,0l-1,0-3.78,0h-.09v-.09c0-.64,0-1.32,0-2,0-.36,0-.72,0-1.09v-1.12h0l.1-.1,5.19,0h.08v.08c0,1.17,0,2.21,0,3.11,0,.31,0,.59,0,.85A1.38,1.38,0,0,1,308.43,369.36Z" style="fill: rgb(38, 50, 56); transform-origin: 305.915px 367.085px;" id="eljstfy92mlr" class="animable"></path><path d="M273.81,357.59a1.71,1.71,0,0,1,0-.3c0-.25,0-.53,0-.85,0-.82,0-1.87,0-3.14l.06.07-13.94,0c.05,0-.11.11.1-.1h0v4.28l-.1-.1,9.94.05,2.93,0h1.08a1.33,1.33,0,0,1-.26,0h-.77l-2.91,0-10,0h-.1v-.1c0-.68,0-1.38,0-2.1v-2.18h0l.11-.11,13.94,0h.07v.07l0,3.18c0,.32,0,.59,0,.84S273.81,357.6,273.81,357.59Z" style="fill: rgb(38, 50, 56); transform-origin: 266.9px 355.3px;" id="ely1zk7cmn7mf" class="animable"></path><g id="el5df3e914i4h"><g style="opacity: 0.2; transform-origin: 273.805px 351.145px;" class="animable"><rect x="266.83" y="349" width="13.95" height="4.29" style="fill: rgb(255, 255, 255); transform-origin: 273.805px 351.145px;" id="eldmlwvly5ad" class="animable"></rect></g></g><g id="el081l7pezaxyw"><g style="opacity: 0.2; transform-origin: 304.895px 330.675px;" class="animable"><rect x="300.96" y="328.53" width="7.87" height="4.29" style="fill: rgb(255, 255, 255); transform-origin: 304.895px 330.675px;" id="elxyminqyxm4g" class="animable"></rect></g></g><path d="M206.7,383.06s0-.11,0-.31,0-.52,0-.85c0-.82,0-1.87,0-3.14l.07.07-13.94,0c0-.05-.11.1.1-.11h0v4.28l-.11-.1,9.95,0,2.93,0,.79,0h-.75l-2.9,0-10,.05h-.1v-4.38h0c.21-.21.06-.05.11-.1l13.94,0h.07v.06l0,3.18c0,.32,0,.6,0,.84A1.45,1.45,0,0,1,206.7,383.06Z" style="fill: rgb(38, 50, 56); transform-origin: 199.8px 380.759px;" id="elozz05zv73ik" class="animable"></path><path d="M200.61,387.51s0-.11,0-.3l0-.85c0-.83,0-1.87,0-3.14l.06.06-13.94,0,.1-.1h0v4.28l-.1-.1,9.94,0,2.93,0h1.07a.87.87,0,0,1-.25,0l-.77,0-2.91,0-10,0h-.1v-.1c0-.68,0-1.38,0-2.1v-2.18h0l.11-.11,13.94,0h.07v.07c0,1.28,0,2.34,0,3.18,0,.32,0,.59,0,.83A1.32,1.32,0,0,1,200.61,387.51Z" style="fill: rgb(38, 50, 56); transform-origin: 193.7px 385.19px;" id="elsi6134fa4y9" class="animable"></path><g id="eldx1k7j8jjfr"><g style="opacity: 0.2; transform-origin: 214.99px 401.895px;" class="animable"><rect x="211.65" y="399.75" width="6.68" height="4.29" style="fill: rgb(255, 255, 255); transform-origin: 214.99px 401.895px;" id="elh35ykh8vchk" class="animable"></rect></g></g><path d="M243,378.37l.41,0,1.16,0,4,0-.1.1v-4.29l.1.1-4,0-1.16,0-.41,0a1.65,1.65,0,0,1,.41,0l1.16,0,4,0h.1v.1c0,.68,0,1.4,0,2.15s0,1.46,0,2.14v.1h-.1l-4,0-1.16,0A1.65,1.65,0,0,1,243,378.37Z" style="fill: rgb(38, 50, 56); transform-origin: 245.835px 376.475px;" id="eliwj172c9ss" class="animable"></path><path d="M240.2,332.27a1.75,1.75,0,0,1,.41,0l1.16,0,4,0-.1.1V328l.1.1-4,0-1.16,0a1.75,1.75,0,0,1-.41,0,2.31,2.31,0,0,1,.41,0l1.16,0,4,0h.1v.1c0,.68,0,1.4,0,2.15s0,1.47,0,2.15v.1h-.1l-4,0-1.16,0Z" style="fill: rgb(38, 50, 56); transform-origin: 243.035px 330.3px;" id="el3noj1ppjcs4" class="animable"></path><rect x="257.66" y="368.26" width="38.59" height="23.9" style="fill: rgb(255, 255, 255); transform-origin: 276.955px 380.21px;" id="ell1fbrazte9k" class="animable"></rect><path d="M268.8,392.39c-.14,0-.26-5.4-.26-12.07s.12-12.06.26-12.06.26,5.4.26,12.06S269,392.39,268.8,392.39Z" style="fill: rgb(39, 180, 132); transform-origin: 268.8px 380.325px;" id="elzwo6tn3kqp" class="animable"></path><path d="M284.85,392.39c-.14,0-.26-5.4-.26-12.07s.12-12.06.26-12.06.26,5.4.26,12.06S285,392.39,284.85,392.39Z" style="fill: rgb(39, 180, 132); transform-origin: 284.85px 380.325px;" id="elaj96zrjvpw8" class="animable"></path><path d="M284.85,381.05a60.72,60.72,0,0,1-8,.26,60.81,60.81,0,0,1-8-.26,63,63,0,0,1,8-.26A62.85,62.85,0,0,1,284.85,381.05Z" style="fill: rgb(39, 180, 132); transform-origin: 276.85px 381.052px;" id="elzosrvtxw3us" class="animable"></path></g><g id="freepik--house-1--inject-2" class="animable" style="transform-origin: 125.28px 286.4px;"><polygon points="132.9 161.15 117.13 161.15 60.7 215.75 60.7 411.65 97.57 411.65 132.9 161.15" style="fill: rgb(38, 50, 56); transform-origin: 96.8px 286.4px;" id="elxl9evr9s0n" class="animable"></polygon><path d="M98.57,320.15a1.33,1.33,0,0,1,0-.26c0-.19,0-.44,0-.74,0-.68,0-1.62,0-2.83,0-2.48,0-6-.07-10.46,0-8.89-.07-21.28-.12-35.44l.26.26H85.28c.52-.52.15-.13.26-.24h0v7.48c0,2.46,0,4.88,0,7.24,0,4.73,0,9.25,0,13.49,0,8.46-.05,15.81-.07,21.49l-.16-.16,9.75.09,2.62,0,.68,0h.24a.85.85,0,0,1-.21,0l-.66,0-2.58,0-9.84.09h-.16v-.16c0-5.68,0-13-.07-21.49,0-4.24,0-8.76,0-13.49,0-2.36,0-4.78,0-7.24v-7.48h0c.12-.12-.26.24.26-.28H98.82v.25c0,14.23-.08,26.69-.11,35.62,0,4.4-.06,7.93-.07,10.4,0,1.18,0,2.11,0,2.77,0,.29,0,.53,0,.71S98.57,320.16,98.57,320.15Z" style="fill: rgb(69, 90, 100); transform-origin: 91.9385px 295.09px;" id="el3l1r1ip0e3h" class="animable"></path><path d="M98.3,275.17a41.82,41.82,0,0,1-6.53.26,41.63,41.63,0,0,1-6.52-.26,41.63,41.63,0,0,1,6.52-.26A41.82,41.82,0,0,1,98.3,275.17Z" style="fill: rgb(69, 90, 100); transform-origin: 91.775px 275.17px;" id="elrny3fzj7rr" class="animable"></path><path d="M98.3,279.25a39.67,39.67,0,0,1-6.53.27,39.49,39.49,0,0,1-6.52-.27,41.63,41.63,0,0,1,6.52-.26A41.82,41.82,0,0,1,98.3,279.25Z" style="fill: rgb(69, 90, 100); transform-origin: 91.775px 279.256px;" id="elj5p3f0eowld" class="animable"></path><path d="M98.3,283.34a41.82,41.82,0,0,1-6.53.26,41.63,41.63,0,0,1-6.52-.26,40.22,40.22,0,0,1,6.52-.26A40.4,40.4,0,0,1,98.3,283.34Z" style="fill: rgb(69, 90, 100); transform-origin: 91.775px 283.338px;" id="eliavbnf54hw" class="animable"></path><path d="M98.3,287.42a40.4,40.4,0,0,1-6.53.26,40.22,40.22,0,0,1-6.52-.26,41.63,41.63,0,0,1,6.52-.26A41.82,41.82,0,0,1,98.3,287.42Z" style="fill: rgb(69, 90, 100); transform-origin: 91.775px 287.422px;" id="el36o91l9gall" class="animable"></path><path d="M98.3,291.51a41.82,41.82,0,0,1-6.53.26,41.63,41.63,0,0,1-6.52-.26,40.22,40.22,0,0,1,6.52-.26A40.4,40.4,0,0,1,98.3,291.51Z" style="fill: rgb(69, 90, 100); transform-origin: 91.775px 291.508px;" id="el21f7fzcs66zi" class="animable"></path><path d="M98.3,295.59a41.82,41.82,0,0,1-6.53.26,41.63,41.63,0,0,1-6.52-.26,41.63,41.63,0,0,1,6.52-.26A41.82,41.82,0,0,1,98.3,295.59Z" style="fill: rgb(69, 90, 100); transform-origin: 91.775px 295.59px;" id="el9lyak6zhry" class="animable"></path><path d="M98.3,299.67a40.4,40.4,0,0,1-6.53.26,40.22,40.22,0,0,1-6.52-.26,41.63,41.63,0,0,1,6.52-.26A41.82,41.82,0,0,1,98.3,299.67Z" style="fill: rgb(69, 90, 100); transform-origin: 91.775px 299.672px;" id="eltj4lbmt20oq" class="animable"></path><path d="M98.3,303.76a41.82,41.82,0,0,1-6.53.26,41.63,41.63,0,0,1-6.52-.26,40.22,40.22,0,0,1,6.52-.26A40.4,40.4,0,0,1,98.3,303.76Z" style="fill: rgb(69, 90, 100); transform-origin: 91.775px 303.758px;" id="el4qacnokz54l" class="animable"></path><path d="M98.3,307.84a40.4,40.4,0,0,1-6.53.26,40.22,40.22,0,0,1-6.52-.26,41.63,41.63,0,0,1,6.52-.26A41.82,41.82,0,0,1,98.3,307.84Z" style="fill: rgb(69, 90, 100); transform-origin: 91.775px 307.842px;" id="elj7u8kte0kvo" class="animable"></path><path d="M98.3,311.93a41.82,41.82,0,0,1-6.53.26,41.63,41.63,0,0,1-6.52-.26,39.49,39.49,0,0,1,6.52-.27A39.67,39.67,0,0,1,98.3,311.93Z" style="fill: rgb(69, 90, 100); transform-origin: 91.775px 311.924px;" id="elznn7ltej05t" class="animable"></path><path d="M98.3,316a41.82,41.82,0,0,1-6.53.26,41.63,41.63,0,0,1-6.52-.26,41.63,41.63,0,0,1,6.52-.26A41.82,41.82,0,0,1,98.3,316Z" style="fill: rgb(69, 90, 100); transform-origin: 91.775px 316px;" id="elioqgceglxcj" class="animable"></path><path d="M97.93,371.36a1.33,1.33,0,0,1,0-.26c0-.19,0-.44,0-.74,0-.68,0-1.62,0-2.83,0-2.48,0-6-.07-10.46,0-8.89-.07-21.28-.11-35.44l.25.26H84.65c.51-.52.14-.13.25-.24h0v14.72c0,4.73,0,9.25,0,13.49,0,8.46-.06,15.81-.08,21.49l-.16-.16,9.75.09,2.62,0,.68,0h.24s-.07,0-.21,0l-.65,0-2.58,0-9.85.09h-.16v-.16c0-5.68,0-13-.07-21.49,0-4.24,0-8.76,0-13.49,0-2.36,0-4.78,0-7.24v-7.48h0c.12-.12-.26.24.27-.28H98.19v.25c0,14.24-.09,26.69-.12,35.62,0,4.4-.06,7.93-.07,10.4,0,1.18,0,2.11,0,2.77,0,.3,0,.53,0,.71S97.94,371.37,97.93,371.36Z" style="fill: rgb(69, 90, 100); transform-origin: 91.2994px 346.3px;" id="elvrcfdnriup" class="animable"></path><path d="M97.66,326.38a40.3,40.3,0,0,1-6.53.26,40.22,40.22,0,0,1-6.52-.26,41.63,41.63,0,0,1,6.52-.26A41.71,41.71,0,0,1,97.66,326.38Z" style="fill: rgb(69, 90, 100); transform-origin: 91.135px 326.382px;" id="ela2iiivqri0o" class="animable"></path><path d="M97.66,330.47a41.71,41.71,0,0,1-6.53.26,41.63,41.63,0,0,1-6.52-.26,39.49,39.49,0,0,1,6.52-.27A39.57,39.57,0,0,1,97.66,330.47Z" style="fill: rgb(69, 90, 100); transform-origin: 91.135px 330.464px;" id="el0k7zvzttc5m" class="animable"></path><path d="M97.66,334.55a41.71,41.71,0,0,1-6.53.26,41.63,41.63,0,0,1-6.52-.26,41.63,41.63,0,0,1,6.52-.26A41.71,41.71,0,0,1,97.66,334.55Z" style="fill: rgb(69, 90, 100); transform-origin: 91.135px 334.55px;" id="elq9p5r50nc7s" class="animable"></path><path d="M97.66,338.63a40.3,40.3,0,0,1-6.53.26,40.22,40.22,0,0,1-6.52-.26,41.63,41.63,0,0,1,6.52-.26A41.71,41.71,0,0,1,97.66,338.63Z" style="fill: rgb(69, 90, 100); transform-origin: 91.135px 338.632px;" id="eldcxc5x0tuvn" class="animable"></path><path d="M97.66,342.72a41.71,41.71,0,0,1-6.53.26,41.63,41.63,0,0,1-6.52-.26,40.22,40.22,0,0,1,6.52-.26A40.3,40.3,0,0,1,97.66,342.72Z" style="fill: rgb(69, 90, 100); transform-origin: 91.135px 342.718px;" id="elhrrtp0khxgj" class="animable"></path><path d="M97.66,346.8a41.71,41.71,0,0,1-6.53.26,41.63,41.63,0,0,1-6.52-.26,41.63,41.63,0,0,1,6.52-.26A41.71,41.71,0,0,1,97.66,346.8Z" style="fill: rgb(69, 90, 100); transform-origin: 91.135px 346.8px;" id="el3djnb78o0w5" class="animable"></path><path d="M97.66,350.88a40.3,40.3,0,0,1-6.53.26,40.22,40.22,0,0,1-6.52-.26,41.63,41.63,0,0,1,6.52-.26A41.71,41.71,0,0,1,97.66,350.88Z" style="fill: rgb(69, 90, 100); transform-origin: 91.135px 350.882px;" id="el3tc81uaklkx" class="animable"></path><path d="M97.66,355a41.71,41.71,0,0,1-6.53.26,41.63,41.63,0,0,1-6.52-.26,40.22,40.22,0,0,1,6.52-.26A40.3,40.3,0,0,1,97.66,355Z" style="fill: rgb(69, 90, 100); transform-origin: 91.135px 354.998px;" id="eloq8lf7fnkt" class="animable"></path><path d="M97.66,359.05a40.3,40.3,0,0,1-6.53.26,40.22,40.22,0,0,1-6.52-.26,41.63,41.63,0,0,1,6.52-.26A41.71,41.71,0,0,1,97.66,359.05Z" style="fill: rgb(69, 90, 100); transform-origin: 91.135px 359.052px;" id="elqv8pgcp2p1o" class="animable"></path><path d="M97.66,363.14a41.71,41.71,0,0,1-6.53.26,41.63,41.63,0,0,1-6.52-.26,40.22,40.22,0,0,1,6.52-.26A40.3,40.3,0,0,1,97.66,363.14Z" style="fill: rgb(69, 90, 100); transform-origin: 91.135px 363.138px;" id="elbjw164lhjvq" class="animable"></path><path d="M97.66,367.22a41.71,41.71,0,0,1-6.53.26,41.63,41.63,0,0,1-6.52-.26,41.63,41.63,0,0,1,6.52-.26A41.71,41.71,0,0,1,97.66,367.22Z" style="fill: rgb(69, 90, 100); transform-origin: 91.135px 367.22px;" id="elbg6puo4wk8" class="animable"></path><polyline points="169.47 411.54 169.47 215.75 132.81 167.11 97.57 215.75 97.57 411.65 169.47 411.65" style="fill: rgb(69, 90, 100); transform-origin: 133.52px 289.38px;" id="el87e5tv0ya3m" class="animable"></polyline><path d="M150.87,411s0-.08,0-.25,0-.43,0-.74c0-.68,0-1.64,0-2.87,0-2.53,0-6.15-.08-10.67,0-9.13-.05-21.85-.09-36.42l.25.25H122.4l.26-.25c0,14.57-.07,27.3-.09,36.42,0,4.52-.06,8.14-.08,10.68,0,1.22,0,2.18,0,2.86l0,.74a.79.79,0,0,1,0,.25s0-.08,0-.25,0-.43,0-.74c0-.68,0-1.64,0-2.86,0-2.54,0-6.16-.08-10.68,0-9.12,0-21.85-.09-36.42v-.26h29v.26c0,14.57-.07,27.29-.09,36.42,0,4.52-.06,8.14-.08,10.67,0,1.23,0,2.19,0,2.87,0,.31,0,.55,0,.74A.79.79,0,0,1,150.87,411Z" style="fill: rgb(38, 50, 56); transform-origin: 136.82px 385.395px;" id="elxd9etmmp5d" class="animable"></path><path d="M146.94,386.43c.05.06-.21.28-.18.73a.85.85,0,0,0,.31.62.68.68,0,0,0,.76,0,.7.7,0,0,0,.37-.66.88.88,0,0,0-.4-.57c-.38-.24-.7-.12-.73-.19s.3-.36.89-.14a1.18,1.18,0,0,1,.71.81,1.2,1.2,0,0,1-1.9,1.13,1.16,1.16,0,0,1-.37-1C146.48,386.52,146.93,386.36,146.94,386.43Z" style="fill: rgb(38, 50, 56); transform-origin: 147.536px 387.266px;" id="elictot9s4fkp" class="animable"></path><rect x="130.6" y="352.24" width="12.35" height="3.84" style="fill: rgb(38, 50, 56); transform-origin: 136.775px 354.16px;" id="el4c54q5biw56" class="animable"></rect><rect x="109.58" y="293.12" width="22.2" height="42.77" style="fill: rgb(224, 224, 224); transform-origin: 120.68px 314.505px;" id="el7lv0n71eh7d" class="animable"></rect><path d="M121.3,340.68c-.14,0-.26-11.17-.26-24.94s.12-24.95.26-24.95.26,11.17.26,24.95S121.45,340.68,121.3,340.68Z" style="fill: rgb(69, 90, 100); transform-origin: 121.3px 315.735px;" id="el8cjo4rpje3r" class="animable"></path><path d="M133.65,308c0,.15-5.68.26-12.68.26s-12.68-.11-12.68-.26,5.67-.26,12.68-.26S133.65,307.84,133.65,308Z" style="fill: rgb(69, 90, 100); transform-origin: 120.97px 308px;" id="el98nlwunib3j" class="animable"></path><path d="M133.65,323.28c0,.14-5.68.26-12.68.26s-12.68-.12-12.68-.26S114,323,121,323,133.65,323.13,133.65,323.28Z" style="fill: rgb(69, 90, 100); transform-origin: 120.97px 323.27px;" id="elxdgsjavt4uk" class="animable"></path><rect x="138.29" y="293.12" width="22.2" height="42.77" style="fill: rgb(224, 224, 224); transform-origin: 149.39px 314.505px;" id="ele65mnzonhjt" class="animable"></rect><path d="M150,340.68c-.15,0-.26-11.17-.26-24.94s.11-24.95.26-24.95.26,11.17.26,24.95S150.16,340.68,150,340.68Z" style="fill: rgb(69, 90, 100); transform-origin: 150px 315.735px;" id="elsvswka14d9e" class="animable"></path><path d="M162.36,308c0,.15-5.68.26-12.68.26S137,308.13,137,308s5.68-.26,12.68-.26S162.36,307.84,162.36,308Z" style="fill: rgb(69, 90, 100); transform-origin: 149.68px 308px;" id="el7134go9nbdk" class="animable"></path><path d="M162.36,323.28c0,.14-5.68.26-12.68.26s-12.68-.12-12.68-.26,5.68-.26,12.68-.26S162.36,323.13,162.36,323.28Z" style="fill: rgb(69, 90, 100); transform-origin: 149.68px 323.28px;" id="el1rxbtvgf7ckh" class="animable"></path><rect x="109.58" y="232.21" width="22.2" height="42.77" style="fill: rgb(224, 224, 224); transform-origin: 120.68px 253.595px;" id="eli8d1yz3q30k" class="animable"></rect><path d="M121.3,279.77c-.14,0-.26-11.17-.26-24.94s.12-25,.26-25,.26,11.17.26,25S121.45,279.77,121.3,279.77Z" style="fill: rgb(69, 90, 100); transform-origin: 121.3px 254.8px;" id="elcd3f6g4axv" class="animable"></path><path d="M133.65,247.07c0,.15-5.68.26-12.68.26s-12.68-.11-12.68-.26,5.67-.26,12.68-.26S133.65,246.93,133.65,247.07Z" style="fill: rgb(69, 90, 100); transform-origin: 120.97px 247.07px;" id="elv4gdeqeukjg" class="animable"></path><path d="M133.65,262.37c0,.14-5.68.26-12.68.26s-12.68-.12-12.68-.26,5.67-.26,12.68-.26S133.65,262.23,133.65,262.37Z" style="fill: rgb(69, 90, 100); transform-origin: 120.97px 262.37px;" id="el0v7vcchzc8tj" class="animable"></path><rect x="138.29" y="232.21" width="22.2" height="42.77" style="fill: rgb(224, 224, 224); transform-origin: 149.39px 253.595px;" id="el96uqqltekz" class="animable"></rect><path d="M150,279.77c-.15,0-.26-11.17-.26-24.94s.11-25,.26-25,.26,11.17.26,25S150.16,279.77,150,279.77Z" style="fill: rgb(69, 90, 100); transform-origin: 150px 254.8px;" id="elh5ux6u8en3k" class="animable"></path><path d="M162.36,247.07c0,.15-5.68.26-12.68.26s-12.68-.11-12.68-.26,5.68-.26,12.68-.26S162.36,246.93,162.36,247.07Z" style="fill: rgb(69, 90, 100); transform-origin: 149.68px 247.07px;" id="el6q95q564lfr" class="animable"></path><path d="M162.36,262.37c0,.14-5.68.26-12.68.26s-12.68-.12-12.68-.26,5.68-.26,12.68-.26S162.36,262.23,162.36,262.37Z" style="fill: rgb(69, 90, 100); transform-origin: 149.68px 262.37px;" id="el993c3ubgdzu" class="animable"></path><rect x="80.07" y="319.15" width="17.49" height="19.41" style="fill: rgb(69, 90, 100); transform-origin: 88.815px 328.855px;" id="el7je8dln3r7y" class="animable"></rect><rect x="80.07" y="256.87" width="17.49" height="19.41" style="fill: rgb(69, 90, 100); transform-origin: 88.815px 266.575px;" id="elov101hcji6o" class="animable"></rect><g id="eljs221ibhzdd"><circle cx="134.34" cy="205.92" r="11.71" style="fill: rgb(224, 224, 224); transform-origin: 134.34px 205.92px; transform: rotate(-49.01deg);" class="animable"></circle></g><path d="M146.1,205.92c0,.14-5.57.26-12.45.26s-12.46-.12-12.46-.26,5.58-.26,12.46-.26S146.1,205.77,146.1,205.92Z" style="fill: rgb(69, 90, 100); transform-origin: 133.645px 205.92px;" id="eli5xem2c5z6r" class="animable"></path><path d="M134.2,220.49c-.14,0-.26-6.35-.26-14.18s.12-14.19.26-14.19.26,6.35.26,14.19S134.35,220.49,134.2,220.49Z" style="fill: rgb(69, 90, 100); transform-origin: 134.2px 206.305px;" id="elq1naq5ryobb" class="animable"></path><polygon points="97.57 215.75 91.92 215.75 132.9 161.15 173.88 215.75 169.47 215.75 132.81 167.11 97.57 215.75" style="fill: rgb(38, 50, 56); transform-origin: 132.9px 188.45px;" id="eludvp4q2vz" class="animable"></polygon><rect x="52.48" y="256.87" width="27.59" height="19.41" style="fill: rgb(38, 50, 56); transform-origin: 66.275px 266.575px;" id="eli8tggr44dve" class="animable"></rect><rect x="52.48" y="319.15" width="27.59" height="19.41" style="fill: rgb(38, 50, 56); transform-origin: 66.275px 328.855px;" id="el9xsh7tzi0kh" class="animable"></rect><polygon points="80.07 215.75 52.48 215.75 95.01 161.15 132.9 161.15 80.07 215.75" style="fill: rgb(38, 50, 56); transform-origin: 92.69px 188.45px;" id="elbz3wvlz74qh" class="animable"></polygon><path d="M81.53,338.85c0,.14-6.65.26-14.85.26s-14.85-.12-14.85-.26,6.64-.26,14.85-.26S81.53,338.7,81.53,338.85Z" style="fill: rgb(69, 90, 100); transform-origin: 66.68px 338.85px;" id="el5z8n9maxnsn" class="animable"></path><path d="M81.53,319.15c0,.15-6.65.26-14.85.26s-14.85-.11-14.85-.26,6.64-.26,14.85-.26S81.53,319,81.53,319.15Z" style="fill: rgb(69, 90, 100); transform-origin: 66.68px 319.15px;" id="elhl1i4xtmb56" class="animable"></path><path d="M81.53,276.71c0,.15-6.65.26-14.85.26s-14.85-.11-14.85-.26,6.64-.26,14.85-.26S81.53,276.57,81.53,276.71Z" style="fill: rgb(69, 90, 100); transform-origin: 66.68px 276.71px;" id="elvn3ie6e2yy9" class="animable"></path><path d="M81.53,257.23c0,.14-6.65.26-14.85.26s-14.85-.12-14.85-.26,6.64-.26,14.85-.26S81.53,257.08,81.53,257.23Z" style="fill: rgb(69, 90, 100); transform-origin: 66.68px 257.23px;" id="elwb1e53q7eob" class="animable"></path><path d="M119.05,353.82s0-.12,0-.35,0-.6,0-1c0-.93,0-2.15,0-3.65l.07.07-16.21,0s-.1.11.11-.1h0v2.53c0,.83,0,1.65,0,2.44l-.1-.1,11.56,0,3.41,0,.91,0h.33a1.29,1.29,0,0,1-.3,0l-.9,0-3.38,0-11.63,0h-.1v-5.07h0l.1-.1,16.21,0h.07v.07c0,1.51,0,2.75,0,3.69,0,.38,0,.7,0,1S119.05,353.82,119.05,353.82Z" style="fill: rgb(38, 50, 56); transform-origin: 111.01px 351.155px;" id="el6pt0byo1jl8" class="animable"></path><path d="M126.56,348.82s0-.12,0-.35,0-.6,0-1q0-1.41,0-3.66l.06.07-16.2,0c0-.05-.11.1.1-.11h0v5l-.11-.1,11.57,0,3.4,0h1.24a1.57,1.57,0,0,1-.3,0h-.9l-3.37,0-11.64,0h-.1v-5.08h0c.21-.21.06-.06.11-.1l16.2,0h.07v.06c0,1.52,0,2.75,0,3.7,0,.37,0,.69,0,1S126.56,348.82,126.56,348.82Z" style="fill: rgb(38, 50, 56); transform-origin: 118.5px 346.148px;" id="eliiw8sf742f8" class="animable"></path><path d="M120.7,293.12s0-.12,0-.35,0-.6,0-1c0-.93,0-2.15,0-3.65l.07.07-16.21,0,.1-.1h0v5l-.1-.1,11.56.05,3.4,0h.94l-.89,0-3.38,0-11.63,0h-.1v-.1c0-.79,0-1.61,0-2.44v-2.53h0c.21-.21.06-.06.11-.1l16.21,0h.06v.07c0,1.51,0,2.75,0,3.69,0,.38,0,.7,0,1S120.7,293.12,120.7,293.12Z" style="fill: rgb(38, 50, 56); transform-origin: 112.65px 290.488px;" id="elf6ovo41gphd" class="animable"></path><path d="M163.83,222.62s0-.13,0-.35,0-.61,0-1c0-.94,0-2.16,0-3.65l.07.06-16.21,0,.1-.1h0v5l-.1-.1,11.56,0,3.4,0h.92l.33,0h-1.2l-3.38,0-11.63.05h-.1v-.1c0-.8,0-1.61,0-2.44v-2.54h0l.11-.11,16.21,0h.06v.07q0,2.26,0,3.69c0,.38,0,.7,0,1S163.83,222.62,163.83,222.62Z" style="fill: rgb(38, 50, 56); transform-origin: 155.78px 219.98px;" id="el5itpzo0y7pj" class="animable"></path><path d="M123.86,194.5s0-.13,0-.35,0-.61,0-1c0-.93,0-2.16,0-3.65l.06.06-16.21,0s-.1.11.11-.1h0v2.53c0,.83,0,1.65,0,2.44l-.1-.1,11.57,0,3.4,0,.92,0h-.88l-3.37,0-11.64,0h-.1v-5.07h0c.21-.21.06-.06.1-.11l16.21,0h.07v.07c0,1.51,0,2.75,0,3.69,0,.38,0,.7,0,1S123.86,194.5,123.86,194.5Z" style="fill: rgb(38, 50, 56); transform-origin: 115.81px 191.822px;" id="ele03fhjg8bn5" class="animable"></path><path d="M109.58,270.47s0-.12,0-.35,0-.6,0-1c0-.94,0-2.16,0-3.66l.07.07-16.21,0s-.11.1.1-.11h0v5l-.1-.1,11.56.05,3.4,0h1.25l-.3,0h-.9l-3.38,0-11.63.05h-.1V265.5h0c.21-.21.06-.05.11-.1l16.21,0h.07v.06c0,1.52,0,2.75,0,3.7,0,.37,0,.69,0,1S109.58,270.47,109.58,270.47Z" style="fill: rgb(38, 50, 56); transform-origin: 101.535px 267.929px;" id="elqrkrolr4njm" class="animable"></path><path d="M103.11,265.4s0-.12,0-.35,0-.6,0-1q0-1.41,0-3.66l.06.07-16.21,0s-.1.11.11-.1h0v5l-.11-.1,11.57.05,3.4,0h1.24a1.29,1.29,0,0,1-.3,0l-.9,0-3.37,0-11.64,0h-.1v-5.07h0l.1-.1,16.21,0h.07v.07c0,1.51,0,2.75,0,3.69,0,.38,0,.7,0,1S103.11,265.4,103.11,265.4Z" style="fill: rgb(38, 50, 56); transform-origin: 95.05px 262.77px;" id="elfye2jdo5fk" class="animable"></path><path d="M169.32,366.8s0-.13,0-.35,0-.61,0-1c0-.93,0-2.16,0-3.65l.07.06-16.21,0,.1-.1h0v5l-.1-.1,11.56,0,3.4,0,.92,0h0l-.89,0-3.38,0-11.63,0H153v-5.07h0l.11-.11,16.21,0h.06v.07c0,1.51,0,2.75,0,3.69,0,.38,0,.7,0,1S169.32,366.8,169.32,366.8Z" style="fill: rgb(38, 50, 56); transform-origin: 161.195px 364.14px;" id="eljq4ya41eqy" class="animable"></path><path d="M165.6,284.24s0-.13,0-.36,0-.6,0-1c0-.94,0-2.16,0-3.66l.07.07-16.21,0,.11-.11h0v1.27c0,.42,0,.85,0,1.26v2.45l-.1-.11,11.56.05,3.4,0h.92l.33,0h-1.2l-3.38,0-11.63,0h-.1v-5.08h0c.21-.2.06-.05.1-.1l16.21,0h.07v.06c0,1.52,0,2.75,0,3.7,0,.37,0,.69,0,1S165.6,284.24,165.6,284.24Z" style="fill: rgb(38, 50, 56); transform-origin: 157.56px 281.576px;" id="eliaignzh6qz" class="animable"></path><path d="M169.32,371.76a1.53,1.53,0,0,1,0-.37q0-.47,0-1c0-1,0-2.21,0-3.6l.09.09-6.28,0,.11-.11h0v2.6c0,.83,0,1.62,0,2.37l-.1-.09,4.51.05,1.29,0,.48,0-.44,0-1.27,0-4.57.05H163v-.1c0-.75,0-1.54,0-2.37v-2.6h0c-.09.1.13-.12.1-.1l6.28,0h.08v.08c0,1.41,0,2.63,0,3.65,0,.37,0,.7,0,1S169.32,371.77,169.32,371.76Z" style="fill: rgb(38, 50, 56); transform-origin: 166.219px 369.17px;" id="el8gvtaod97nq" class="animable"></path><path d="M169.32,289.23a1.75,1.75,0,0,1,0-.38c0-.31,0-.64,0-1,0-1,0-2.21,0-3.59l.09.08-6.28,0s.2-.2.11-.1h0v2.59c0,.83,0,1.62,0,2.38l-.1-.1,4.51.05,1.29,0,.48,0-.44,0-1.27,0-4.57.05H163v-.09c0-.76,0-1.55,0-2.38v-2.59h0c-.09.09.13-.13.1-.11l6.28,0h.08v.09c0,1.4,0,2.63,0,3.65,0,.36,0,.69,0,1S169.32,289.23,169.32,289.23Z" style="fill: rgb(38, 50, 56); transform-origin: 166.219px 286.634px;" id="ele7xj9xuyxgt" class="animable"></path><rect x="169.47" y="397.2" width="29.26" height="14.45" style="fill: rgb(69, 90, 100); transform-origin: 184.1px 404.425px;" id="elmzye1hw4zsd" class="animable"></rect><path d="M99.61,215.75c0,.15-10.5.21-23.44.14s-23.44-.24-23.44-.38,10.49-.21,23.44-.14S99.61,215.61,99.61,215.75Z" style="fill: rgb(69, 90, 100); transform-origin: 76.17px 215.631px;" id="elg8hhi1wuau9" class="animable"></path></g><g id="freepik--Bike--inject-2" class="animable" style="transform-origin: 59.04px 394.43px;"><path d="M76.18,411.44a11.76,11.76,0,1,1,11.76-11.76A11.77,11.77,0,0,1,76.18,411.44Zm0-22.45a10.7,10.7,0,1,0,10.69,10.69A10.7,10.7,0,0,0,76.18,389Z" style="fill: rgb(69, 90, 100); transform-origin: 76.18px 399.68px;" id="el3jev00s58sl" class="animable"></path><polygon points="58.77 401.42 75.61 399.61 75.81 401.03 58.77 402.72 58.77 401.42" style="fill: rgb(39, 180, 132); transform-origin: 67.29px 401.165px;" id="elradcovgs6bq" class="animable"></polygon><path d="M41.9,411.44a11.76,11.76,0,1,1,11.76-11.76A11.77,11.77,0,0,1,41.9,411.44Zm0-22.45a10.7,10.7,0,1,0,10.69,10.69A10.71,10.71,0,0,0,41.9,389Z" style="fill: rgb(69, 90, 100); transform-origin: 41.9px 399.68px;" id="elgv6x32ak9i" class="animable"></path><polygon points="68.16 382.46 67.23 379.69 67.94 378.6 72.26 377.42 72.54 378.14 68.67 379.16 68.25 380.22 68.89 382.24 68.16 382.46" style="fill: rgb(39, 180, 132); transform-origin: 69.885px 379.94px;" id="el73g3i0avlbu" class="animable"></polygon><polygon points="75.31 399.03 69.61 386.05 58.16 400.27 57.14 399.25 69.1 385.24 68.7 384.42 51.66 388.01 51.3 386.7 68.3 383.42 67.94 382.32 69.1 381.96 76.18 398.38 75.31 399.03" style="fill: rgb(39, 180, 132); transform-origin: 63.74px 391.115px;" id="el4nxyysrky8m" class="animable"></polygon><polygon points="42.46 400.27 53.06 401.98 53.11 400.84 42.78 399.27 42.46 400.27" style="fill: rgb(39, 180, 132); transform-origin: 47.785px 400.625px;" id="elal02sghkf2r" class="animable"></polygon><polygon points="41.91 398.89 49.84 388.23 51.3 388.89 42.9 399.62 41.91 398.89" style="fill: rgb(39, 180, 132); transform-origin: 46.605px 393.925px;" id="elpbrz5708sxg" class="animable"></polygon><circle cx="55.83" cy="402.01" r="3.23" style="fill: rgb(39, 180, 132); transform-origin: 55.83px 402.01px;" id="elexf2odcqjaj" class="animable"></circle><polygon points="51.3 386.7 50.51 383.99 48.94 383.99 49.84 388.23 51.3 388.89 51.66 388.01 51.3 386.7" style="fill: rgb(39, 180, 132); transform-origin: 50.3px 386.44px;" id="el8axry1hocb7" class="animable"></polygon><path d="M46.76,383.94c.12.38.67,2,1.47,2a68.91,68.91,0,0,0,7.16-1c.52-.13.83-1-.43-1C53.16,383.94,46.49,383.1,46.76,383.94Z" style="fill: rgb(39, 180, 132); transform-origin: 51.2976px 384.753px;" id="elt0a5zcchwn" class="animable"></path><path d="M43.33,399.73a1.42,1.42,0,1,1-1.42-1.42A1.42,1.42,0,0,1,43.33,399.73Z" style="fill: rgb(39, 180, 132); transform-origin: 41.91px 399.73px;" id="eln1m8xzbflvp" class="animable"></path><path d="M77.59,399.73a1.42,1.42,0,1,1-1.42-1.42A1.41,1.41,0,0,1,77.59,399.73Z" style="fill: rgb(39, 180, 132); transform-origin: 76.17px 399.73px;" id="elnvny5f3c6z" class="animable"></path><g id="eldjandkyguyv"><polygon points="68.16 382.46 67.23 379.69 67.94 378.6 72.26 377.42 72.54 378.14 68.67 379.16 68.25 380.22 68.89 382.24 68.16 382.46" style="opacity: 0.5; transform-origin: 69.885px 379.94px;" class="animable"></polygon></g><g id="el3mivycsdzb5"><circle cx="55.83" cy="402.01" r="3.23" style="opacity: 0.5; transform-origin: 55.83px 402.01px;" class="animable"></circle></g><g id="elpgu3bp26dek"><path d="M46.76,383.94c.12.38.67,2,1.47,2a68.91,68.91,0,0,0,7.16-1c.52-.13.83-1-.43-1C53.16,383.94,46.49,383.1,46.76,383.94Z" style="opacity: 0.5; transform-origin: 51.2976px 384.753px;" class="animable"></path></g><g id="elcbjnxuv8nuq"><path d="M43.33,399.73a1.42,1.42,0,1,1-1.42-1.42A1.42,1.42,0,0,1,43.33,399.73Z" style="opacity: 0.5; transform-origin: 41.91px 399.73px;" class="animable"></path></g><g id="elo61dm7llcw"><path d="M77.59,399.73a1.42,1.42,0,1,1-1.42-1.42A1.41,1.41,0,0,1,77.59,399.73Z" style="opacity: 0.5; transform-origin: 76.17px 399.73px;" class="animable"></path></g><polygon points="55.42 402.72 55.42 407.25 53.11 407.25 53.11 408.38 56.77 408.38 56.77 402.72 55.42 402.72" style="fill: rgb(39, 180, 132); transform-origin: 54.94px 405.55px;" id="elqm3zy5tw2x" class="animable"></polygon></g><g id="freepik--Plants--inject-2" class="animable" style="transform-origin: 263.99px 387.075px;"><polygon points="115.19 411.65 105.51 411.65 103.51 396.36 117.13 396.36 115.19 411.65" style="fill: rgb(38, 50, 56); transform-origin: 110.32px 404.005px;" id="el0hcrs9hroara" class="animable"></polygon><path d="M112.44,391.81a5.53,5.53,0,0,1,3.37-.87,2.87,2.87,0,0,1,1.79.53,1.23,1.23,0,0,1,.24,1.68,1.58,1.58,0,0,1-1,.41,4.25,4.25,0,0,0-2.58.73c-.37.36-.58.91-1,1.13a1.17,1.17,0,0,1-1.36-.4,2,2,0,0,1-.34-1.45A2.28,2.28,0,0,1,112.44,391.81Z" style="fill: rgb(39, 180, 132); transform-origin: 114.803px 393.212px;" id="elcmf7f8m8x7j" class="animable"></path><path d="M109.45,387.52a1.65,1.65,0,0,0,2.45-.27,4.69,4.69,0,0,0,.76-2.26,11.44,11.44,0,0,0-.08-5.46,3,3,0,0,0-.88-1.37,1.56,1.56,0,0,0-1.54-.3,2.3,2.3,0,0,0-1.11,1.53,13,13,0,0,0-.54,5.67,4.49,4.49,0,0,0,.94,2.46" style="fill: rgb(39, 180, 132); transform-origin: 110.679px 382.859px;" id="elr8tgt7mry0o" class="animable"></path><path d="M107.88,389.06A3.35,3.35,0,0,0,108,386a6,6,0,0,0-2.15-2.38,9.85,9.85,0,0,0-3.48-1.48,3.57,3.57,0,0,0-1.49,0,1.54,1.54,0,0,0-1.12.9,2.31,2.31,0,0,0,.62,2,25.39,25.39,0,0,0,2.54,2.94,5.77,5.77,0,0,0,2.6,1.69,2.13,2.13,0,0,0,2.44-.67" style="fill: rgb(39, 180, 132); transform-origin: 104.02px 385.937px;" id="el8dw8tfidgs7" class="animable"></path><path d="M111.22,401.23a1.25,1.25,0,0,0,0-.42c0-.3,0-.68,0-1.14a16.36,16.36,0,0,1,0-1.68,13.23,13.23,0,0,1,.34-2,7.26,7.26,0,0,1,.77-1.9,3.71,3.71,0,0,1,1.12-1.22,3.92,3.92,0,0,1,1-.47l.41-.11a1.65,1.65,0,0,0-.42.05,3.15,3.15,0,0,0-1.07.43,3.8,3.8,0,0,0-1.19,1.23,7.37,7.37,0,0,0-.79,1.94,12.61,12.61,0,0,0-.34,2.06,13.69,13.69,0,0,0,0,1.71c0,.48.06.87.09,1.14A2.06,2.06,0,0,0,111.22,401.23Z" style="fill: rgb(38, 50, 56); transform-origin: 112.942px 396.76px;" id="ely86yqmiezc" class="animable"></path><path d="M111.19,400.36a1.47,1.47,0,0,0,0-.2l-.07-.54c-.07-.48-.16-1.17-.24-2-.19-1.71-.28-3.55-.34-6.17-.06-2.46-.07-5.33.06-7.21,0-.43.06-.82.1-1.16s0-.63.08-.87,0-.4.06-.55,0-.19,0-.19,0,.06,0,.19,0,.32-.09.54-.07.53-.11.87-.08.73-.12,1.16a63.4,63.4,0,0,0-.18,6.71,66.65,66.65,0,0,0,.46,6.69c.1.86.21,1.54.29,2,0,.22.08.4.11.54A.5.5,0,0,0,111.19,400.36Z" style="fill: rgb(38, 50, 56); transform-origin: 110.759px 390.915px;" id="ele8ecq1ttgcl" class="animable"></path><path d="M110.6,395.82a4.43,4.43,0,0,0-.08-.57c-.07-.37-.19-.89-.38-1.53a21.26,21.26,0,0,0-.81-2.19A17.47,17.47,0,0,0,108,389a14,14,0,0,0-3.35-4,6.75,6.75,0,0,0-.73-.52,2.29,2.29,0,0,0-.31-.2l-.27-.14a4,4,0,0,0-.53-.25,17.17,17.17,0,0,1,1.77,1.2,15.26,15.26,0,0,1,3.28,3.95,22.79,22.79,0,0,1,1.3,2.52c.35.8.62,1.54.83,2.17s.34,1.14.43,1.5A3.41,3.41,0,0,0,110.6,395.82Z" style="fill: rgb(38, 50, 56); transform-origin: 106.705px 389.855px;" id="eltdwrtzck33" class="animable"></path><rect x="102.84" y="396.36" width="14.58" height="1.69" style="fill: rgb(38, 50, 56); transform-origin: 110.13px 397.205px;" id="el79hrc51416l" class="animable"></rect><path d="M117.06,398c0,.06-3,.1-6.6.1s-6.6,0-6.6-.1,3-.11,6.6-.11S117.06,397.94,117.06,398Z" style="fill: rgb(224, 224, 224); transform-origin: 110.46px 397.995px;" id="eldmm71u5k99" class="animable"></path><path d="M116.18,403.88s-.14.12-.41.29a5.25,5.25,0,0,1-1.25.59,2.69,2.69,0,0,1-2-.21c-.7-.35-1.32-.94-2.08-1.36a2.27,2.27,0,0,0-2.27-.15c-.67.34-1.18.82-1.7,1.1a2.4,2.4,0,0,1-1.33.35,1,1,0,0,1-.49-.13s.18.05.49.05a2.36,2.36,0,0,0,1.26-.4c.49-.28,1-.78,1.68-1.14a2.32,2.32,0,0,1,1.21-.27,3,3,0,0,1,1.25.41c.79.44,1.4,1,2.07,1.36a2.47,2.47,0,0,0,1.9.24A12.26,12.26,0,0,0,116.18,403.88Z" style="fill: rgb(224, 224, 224); transform-origin: 110.415px 403.73px;" id="elpya81xi2n9l" class="animable"></path><path d="M105.38,402.42s.14-.11.34,0a.43.43,0,0,1-.15.76.47.47,0,0,1-.49-.14.48.48,0,0,1-.06-.41c.08-.23.26-.25.26-.22s-.09.09-.11.26a.26.26,0,0,0,.34.31.27.27,0,0,0,.11-.45C105.51,402.44,105.38,402.45,105.38,402.42Z" style="fill: rgb(224, 224, 224); transform-origin: 105.445px 402.786px;" id="elw4z5tzzlid" class="animable"></path><path d="M109.07,403.94s-.1.06-.16.19a.22.22,0,0,0,.2.33.21.21,0,0,0,.18-.34c-.06-.13-.17-.15-.17-.18s.15-.07.29.1a.35.35,0,0,1,.08.36.41.41,0,0,1-.76,0,.42.42,0,0,1,0-.36C108.92,403.88,109.08,403.92,109.07,403.94Z" style="fill: rgb(224, 224, 224); transform-origin: 109.1px 404.285px;" id="ele8ys2889ai" class="animable"></path><path d="M113.68,402.87s-.11.08-.15.25A.28.28,0,1,0,114,403c-.09-.14-.22-.16-.22-.19s.16-.08.33.1a.44.44,0,0,1,.12.39.47.47,0,0,1-.84.14.43.43,0,0,1,0-.41C113.5,402.85,113.68,402.84,113.68,402.87Z" style="fill: rgb(224, 224, 224); transform-origin: 113.788px 403.212px;" id="elccau7qd30w4" class="animable"></path><rect x="254.22" y="398.6" width="43.84" height="13.01" style="fill: rgb(69, 90, 100); transform-origin: 276.14px 405.105px;" id="elp91joaea4hp" class="animable"></rect><rect x="252.39" y="397.83" width="47.27" height="2.5" style="fill: rgb(69, 90, 100); transform-origin: 276.025px 399.08px;" id="elwfx2dqxefvo" class="animable"></rect><path d="M297.87,400.29c0,.14-9.76.26-21.8.26s-21.81-.12-21.81-.26S264,400,276.07,400,297.87,400.15,297.87,400.29Z" style="fill: rgb(38, 50, 56); transform-origin: 276.065px 400.275px;" id="elxmi6z4dgbe" class="animable"></path><path d="M298.27,403.7c0,.09-9.9.16-22.1.16s-22.09-.07-22.09-.16,9.89-.15,22.09-.15S298.27,403.61,298.27,403.7Z" style="fill: rgb(250, 250, 250); transform-origin: 276.175px 403.705px;" id="el8nkqvpbvrgr" class="animable"></path><path d="M297.23,397.83c-.59-2.12-1.52-3.13-3.62-3.49A8.2,8.2,0,0,0,277.79,391a9.06,9.06,0,0,0-14.62,4.77c-3.09-1.45-6.73-.58-8,2.1Z" style="fill: rgb(38, 50, 56); transform-origin: 276.2px 391.841px;" id="elbu2pieypx7h" class="animable"></path><path d="M423.68,362.52s-1.82-.52-2.52,3.67a49.19,49.19,0,0,0-.74,6.49s-.24.91-.92.58-1.83-1.51-2.63-1-.81,1.66-.16,3.11,2,4.67,2.07,5,.08.77-.41.62-3.67-2-4.47-.46,1.68,5.28,1.94,5.7.24.63.06.81-1.19-.55-2.11-1-2.08-.91-2.47,0,.39,4.07,4.9,8.15l2.22,1.75,2.65-1c5.54-2.49,7.24-5.24,7.16-6.25s-1.3-1-2.34-.79-2.21.58-2.32.35-.08-.44.3-.76,3.87-3.1,3.59-4.83-3.87-.92-4.39-.93-.4-.48-.2-.72,2.43-2.9,3.49-4.08,1.42-2.23.8-3-2.06,0-2.8.12-.7-.84-.7-.84a51.1,51.1,0,0,0,1.29-6.4c.62-4.2-1.33-4.26-1.33-4.26" style="fill: rgb(39, 180, 132); transform-origin: 419.742px 379.22px;" id="elhameipq50un" class="animable"></path><path d="M423.05,366.27a.62.62,0,0,1,0,.09l0,.26c0,.23-.08.57-.14,1-.12.87-.31,2.12-.54,3.66-.47,3.08-1.15,7.34-1.92,12s-1.46,8.95-1.94,12c-.24,1.53-.44,2.78-.57,3.64-.07.43-.12.77-.16,1l0,.25a.66.66,0,0,1,0,.09.62.62,0,0,1,0-.09l0-.26c0-.23.08-.56.14-1,.12-.87.3-2.11.54-3.66.47-3.08,1.15-7.33,1.92-12s1.46-9,1.94-12c.24-1.54.44-2.79.57-3.65.07-.43.12-.76.16-1l0-.26A.66.66,0,0,1,423.05,366.27Z" style="fill: rgb(38, 50, 56); transform-origin: 420.415px 383.265px;" id="eltu8fu25k67" class="animable"></path><path d="M418.42,374a.62.62,0,0,1,.12.16c.08.1.19.26.32.46.26.39.6.94,1,1.55l.93,1.57.28.48a.65.65,0,0,1,.1.18,1.47,1.47,0,0,1-.13-.16l-.31-.46c-.25-.39-.59-.95-1-1.56l-.94-1.57-.29-.47A1.11,1.11,0,0,1,418.42,374Z" style="fill: rgb(38, 50, 56); transform-origin: 419.795px 376.2px;" id="ellplxxwsu2sc" class="animable"></path><path d="M421.4,378.37s1.09-.78,2.46-1.69,2.5-1.64,2.52-1.61-1.09.78-2.46,1.69S421.42,378.39,421.4,378.37Z" style="fill: rgb(38, 50, 56); transform-origin: 423.89px 376.72px;" id="el3qfk63x677m" class="animable"></path><path d="M419.9,385.53l.19-.07.54-.17c.46-.15,1.09-.35,1.77-.6s1.3-.48,1.75-.66l.52-.21.2-.07-.18.1-.52.24c-.43.2-1.05.45-1.73.7s-1.33.43-1.79.56l-.55.14A.76.76,0,0,1,419.9,385.53Z" style="fill: rgb(38, 50, 56); transform-origin: 422.385px 384.64px;" id="eloek28wvu73d" class="animable"></path><path d="M416.33,382.17l.15.11.4.35,1.28,1.15,1.26,1.18.38.37.13.14s-.06,0-.16-.11l-.39-.35c-.34-.29-.79-.7-1.29-1.15l-1.26-1.18-.38-.37C416.37,382.22,416.32,382.17,416.33,382.17Z" style="fill: rgb(38, 50, 56); transform-origin: 418.129px 383.82px;" id="elrgqtd81npjr" class="animable"></path><path d="M414.19,388.32l.2.15.51.44,1.65,1.47c.65.58,1.22,1.1,1.64,1.49l.49.46.17.18-.2-.15-.51-.44-1.65-1.47L414.85,389l-.49-.46Z" style="fill: rgb(38, 50, 56); transform-origin: 416.52px 390.415px;" id="el6kwg4vk3xq5" class="animable"></path><path d="M418.76,392.38l.25-.1.68-.24c.57-.2,1.36-.49,2.22-.82s1.63-.66,2.19-.9l.66-.28A.84.84,0,0,1,425,390l-.23.12c-.15.08-.37.19-.65.31-.55.26-1.32.59-2.19.93s-1.65.61-2.23.79c-.29.1-.53.17-.69.21Z" style="fill: rgb(38, 50, 56); transform-origin: 421.88px 391.19px;" id="elacpy57md03w" class="animable"></path><polygon points="423.89 411.65 414.21 411.65 412.2 396.36 425.82 396.36 423.89 411.65" style="fill: rgb(38, 50, 56); transform-origin: 419.01px 404.005px;" id="el9zqagbf067q" class="animable"></polygon><rect x="411.54" y="396.36" width="14.58" height="1.69" style="fill: rgb(38, 50, 56); transform-origin: 418.83px 397.205px;" id="el2gaohnwewlo" class="animable"></rect><path d="M425.75,398c0,.06-2.95.1-6.59.1s-6.6,0-6.6-.1,2.95-.11,6.6-.11S425.75,397.94,425.75,398Z" style="fill: rgb(224, 224, 224); transform-origin: 419.155px 397.995px;" id="elzhde3qlr7lj" class="animable"></path><path d="M424.88,403.88a1.92,1.92,0,0,1-.42.29,4.89,4.89,0,0,1-1.25.59,2.67,2.67,0,0,1-2-.21c-.71-.35-1.33-.94-2.08-1.36a2.29,2.29,0,0,0-2.28-.15c-.66.34-1.17.82-1.69,1.1a2.4,2.4,0,0,1-1.33.35,1,1,0,0,1-.49-.13s.17.05.49.05a2.41,2.41,0,0,0,1.26-.4c.49-.28,1-.78,1.68-1.14a2.31,2.31,0,0,1,1.2-.27,3,3,0,0,1,1.26.41c.79.44,1.4,1,2.07,1.36a2.45,2.45,0,0,0,1.89.24A12.11,12.11,0,0,0,424.88,403.88Z" style="fill: rgb(224, 224, 224); transform-origin: 419.11px 403.731px;" id="elv1pntxqdcce" class="animable"></path><path d="M414.07,402.42s.15-.11.34,0a.43.43,0,0,1,.18.36.46.46,0,0,1-.81.26.48.48,0,0,1-.06-.41c.08-.23.26-.25.26-.22s-.1.09-.12.26a.27.27,0,0,0,.35.31.26.26,0,0,0,.1-.45C414.2,402.44,414.08,402.45,414.07,402.42Z" style="fill: rgb(224, 224, 224); transform-origin: 414.144px 402.787px;" id="elo5gz1fnprtn" class="animable"></path><path d="M417.77,403.94s-.11.06-.16.19a.22.22,0,1,0,.38,0c-.07-.13-.18-.15-.17-.18s.14-.07.29.1a.38.38,0,0,1-.29.63.4.4,0,0,1-.4-.25.39.39,0,0,1,.06-.36C417.62,403.88,417.78,403.92,417.77,403.94Z" style="fill: rgb(224, 224, 224); transform-origin: 417.802px 404.302px;" id="elyfsscpoex1g" class="animable"></path><path d="M422.37,402.87s-.1.08-.14.25a.27.27,0,0,0,.31.35.26.26,0,0,0,.17-.43c-.09-.14-.21-.16-.21-.19s.16-.08.33.1a.44.44,0,0,1,.12.39.46.46,0,0,1-.38.34.47.47,0,0,1-.47-.2.49.49,0,0,1,0-.41C422.2,402.85,422.38,402.84,422.37,402.87Z" style="fill: rgb(224, 224, 224); transform-origin: 422.506px 403.254px;" id="elb4bfrnzk8v" class="animable"></path></g><defs>     <filter id="active" height="200%">         <feMorphology in="SourceAlpha" result="DILATED" operator="dilate" radius="2"></feMorphology>                <feFlood flood-color="#32DFEC" flood-opacity="1" result="PINK"></feFlood>        <feComposite in="PINK" in2="DILATED" operator="in" result="OUTLINE"></feComposite>        <feMerge>            <feMergeNode in="OUTLINE"></feMergeNode>            <feMergeNode in="SourceGraphic"></feMergeNode>        </feMerge>    </filter>    <filter id="hover" height="200%">        <feMorphology in="SourceAlpha" result="DILATED" operator="dilate" radius="2"></feMorphology>                <feFlood flood-color="#ff0000" flood-opacity="0.5" result="PINK"></feFlood>        <feComposite in="PINK" in2="DILATED" operator="in" result="OUTLINE"></feComposite>        <feMerge>            <feMergeNode in="OUTLINE"></feMergeNode>            <feMergeNode in="SourceGraphic"></feMergeNode>        </feMerge>            <feColorMatrix type="matrix" values="0   0   0   0   0                0   1   0   0   0                0   0   0   0   0                0   0   0   1   0 "></feColorMatrix>    </filter></defs></svg>