<?xml version="1.0" standalone="no"?>
<svg xmlns="http://www.w3.org/2000/svg" viewBox="0 0 134.7 24.36" width="134.7" height="24.36"><path fill="#28b485" fill-rule="nonzero" d="M9.85 16.32Q8.99 17.00 7.62 17.38Q6.25 17.75 4.25 17.75Q2.25 17.75 0 17.39L0 17.39L0 1.95Q2.27 1.58 3.94 1.58Q5.61 1.58 6.69 1.90Q7.76 2.21 8.44 2.75L8.44 2.75Q9.77 3.80 9.77 5.46Q9.77 7.11 8.57 8.20L8.57 8.20Q10.00 8.65 10.78 9.89L10.78 9.89Q11.50 11.00 11.50 12.36Q11.50 13.71 11.10 14.67Q10.71 15.63 9.85 16.32ZM3.11 4.11L3.11 7.77Q3.60 7.85 4.34 7.85Q5.07 7.85 5.55 7.66Q6.02 7.46 6.28 7.17L6.28 7.17Q6.70 6.69 6.70 5.84L6.70 5.84Q6.70 4.04 4.59 4.04L4.59 4.04Q3.70 4.04 3.11 4.11L3.11 4.11ZM4.84 10.28L4.84 10.28Q3.86 10.28 3.11 10.41L3.11 10.41L3.11 15.01Q3.93 15.22 4.83 15.22Q5.73 15.22 6.42 15.01Q7.10 14.79 7.57 14.41L7.57 14.41Q8.52 13.64 8.52 12.45L8.52 12.45Q8.52 10.28 4.84 10.28ZM12.84 11.40L12.84 11.40Q12.84 10.11 13.28 8.94Q13.72 7.76 14.54 6.88L14.54 6.88Q16.34 4.98 19.20 4.98L19.20 4.98Q22.04 4.98 23.72 6.77L23.72 6.77Q25.32 8.48 25.32 11.21L25.32 11.21Q25.32 13.95 23.67 15.74L23.67 15.74Q21.93 17.64 19.04 17.64L19.04 17.64Q16.07 17.64 14.38 15.77L14.38 15.77Q12.84 14.07 12.84 11.40ZM15.69 11.33L15.69 11.33Q15.69 12.07 15.94 12.76Q16.18 13.45 16.64 13.95L16.64 13.95Q17.61 15.01 19.20 15.01L19.20 15.01Q20.66 15.01 21.50 13.97L21.50 13.97Q22.32 12.96 22.32 11.34L22.32 11.34Q22.32 9.70 21.48 8.70L21.48 8.70Q20.58 7.62 19.01 7.62L19.01 7.62Q17.41 7.62 16.51 8.77L16.51 8.77Q15.69 9.82 15.69 11.33ZM26.87 11.40L26.87 11.40Q26.87 10.11 27.31 8.94Q27.75 7.76 28.57 6.88L28.57 6.88Q30.36 4.98 33.22 4.98L33.22 4.98Q36.07 4.98 37.75 6.77L37.75 6.77Q39.35 8.48 39.35 11.21L39.35 11.21Q39.35 13.95 37.70 15.74L37.70 15.74Q35.95 17.64 33.07 17.64L33.07 17.64Q30.09 17.64 28.41 15.77L28.41 15.77Q26.87 14.07 26.87 11.40ZM29.72 11.33L29.72 11.33Q29.72 12.07 29.96 12.76Q30.21 13.45 30.67 13.95L30.67 13.95Q31.64 15.01 33.22 15.01L33.22 15.01Q34.69 15.01 35.53 13.97L35.53 13.97Q36.35 12.96 36.35 11.34L36.35 11.34Q36.35 9.70 35.51 8.70L35.51 8.70Q34.61 7.62 33.04 7.62L33.04 7.62Q31.44 7.62 30.54 8.77L30.54 8.77Q29.72 9.82 29.72 11.33ZM44.51 0L44.51 16.15Q44.51 17.16 44.55 17.46L44.55 17.46L41.58 17.46L41.58 0L44.51 0ZM57.94 16.32Q57.08 17.00 55.71 17.38Q54.34 17.75 52.34 17.75Q50.34 17.75 48.09 17.39L48.09 17.39L48.09 1.95Q50.37 1.58 52.04 1.58Q53.71 1.58 54.78 1.90Q55.85 2.21 56.53 2.75L56.53 2.75Q57.87 3.80 57.87 5.46Q57.87 7.11 56.66 8.20L56.66 8.20Q58.09 8.65 58.88 9.89L58.88 9.89Q59.59 11.00 59.59 12.36Q59.59 13.71 59.20 14.67Q58.80 15.63 57.94 16.32ZM51.20 4.11L51.20 7.77Q51.69 7.85 52.43 7.85Q53.17 7.85 53.64 7.66Q54.12 7.46 54.38 7.17L54.38 7.17Q54.80 6.69 54.80 5.84L54.80 5.84Q54.80 4.04 52.69 4.04L52.69 4.04Q51.80 4.04 51.20 4.11L51.20 4.11ZM52.93 10.28L52.93 10.28Q51.95 10.28 51.20 10.41L51.20 10.41L51.20 15.01Q52.02 15.22 52.92 15.22Q53.82 15.22 54.51 15.01Q55.20 14.79 55.66 14.41L55.66 14.41Q56.61 13.64 56.61 12.45L56.61 12.45Q56.61 10.28 52.93 10.28ZM64.91 9.27L64.91 15.96Q64.91 16.99 65.00 17.46L65.00 17.46L62.06 17.46L62.06 5.21L64.91 5.21L64.91 6.26Q66.46 4.98 68.21 4.98L68.21 4.98Q70.14 4.98 71.29 6.29Q72.43 7.59 72.43 9.73L72.43 9.73L72.43 14.39Q72.43 16.37 72.49 16.77Q72.55 17.17 72.65 17.29Q72.75 17.40 72.82 17.50L72.82 17.50L72.80 17.54Q71.85 17.46 71.41 17.46L71.41 17.46L70.59 17.46Q70.22 17.46 69.59 17.50L69.59 17.50L69.59 11.11Q69.59 7.68 67.50 7.68L67.50 7.68Q65.95 7.68 64.91 9.27L64.91 9.27ZM86.00 16.32Q85.14 17.00 83.77 17.38Q82.39 17.75 80.40 17.75Q78.40 17.75 76.15 17.39L76.15 17.39L76.15 1.95Q78.42 1.58 80.09 1.58Q81.76 1.58 82.83 1.90Q83.91 2.21 84.59 2.75L84.59 2.75Q85.92 3.80 85.92 5.46Q85.92 7.11 84.71 8.20L84.71 8.20Q86.14 8.65 86.93 9.89L86.93 9.89Q87.64 11.00 87.64 12.36Q87.64 13.71 87.25 14.67Q86.86 15.63 86.00 16.32ZM79.25 4.11L79.25 7.77Q79.75 7.85 80.48 7.85Q81.22 7.85 81.70 7.66Q82.17 7.46 82.43 7.17L82.43 7.17Q82.85 6.69 82.85 5.84L82.85 5.84Q82.85 4.04 80.74 4.04L80.74 4.04Q79.85 4.04 79.25 4.11L79.25 4.11ZM80.99 10.28L80.99 10.28Q80.00 10.28 79.25 10.41L79.25 10.41L79.25 15.01Q80.07 15.22 80.98 15.22Q81.88 15.22 82.56 15.01Q83.25 14.79 83.72 14.41L83.72 14.41Q84.67 13.64 84.67 12.45L84.67 12.45Q84.67 10.28 80.99 10.28Z" transform="translate(0, 3.304)"></path><line x1="96.64453125" y1="2%" x2="96.64453125" y2="98%" stroke="#28b485" stroke-linecap="round"></line><g fill="#5c9523" color="#5c9523" transform="translate(105.64453125 0) scale(0.58)"><svg width="50.0" height="42.0" x="0.0" y="0.0" viewBox="0 0 50 42"><path fill="currentColor" fill-rule="evenodd" d="M39.414 17.264v20.7H10.35V17.153c0-.048-.011-.093-.015-.14L24.882 4.829 39.439 17.02c-.01.081-.025.16-.025.244m9.711 3.21L26.03 1.132a1.787 1.787 0 0 0-2.294 0L.639 20.475a1.786 1.786 0 0 0 2.293 2.738l3.845-3.221V39.75c0 .986.8 1.785 1.786 1.785H41.2c.986 0 1.786-.799 1.786-1.785V19.992l3.845 3.22a1.784 1.784 0 0 0 2.516-.223 1.785 1.785 0 0 0-.22-2.514m-25.81 2.38a1.785 1.785 0 1 0 3.13 0 1.371 1.371 0 0 1 2.573.656c0 1.665-2.415 3.67-4.14 4.774-1.723-1.098-4.134-3.098-4.134-4.773a1.371 1.371 0 0 1 2.571-.657m-6.142.657c0 4.623 6.164 8.046 6.867 8.42a1.784 1.784 0 0 0 1.681 0c.703-.374 6.868-3.797 6.868-8.42a4.947 4.947 0 0 0-4.942-4.94 4.932 4.932 0 0 0-2.766.848 4.941 4.941 0 0 0-2.767-.848 4.947 4.947 0 0 0-4.941 4.94"></path></svg></g></svg>